# Blender 4.0.2
# www.blender.org
mtllib Marco_Vertical.mtl
o Pared_vertical
v 0.000036 0.004407 0.001152
v 0.000036 0.004407 -0.001126
v -0.007173 0.004407 0.000016
v -0.007104 0.004407 0.000666
v -0.007004 0.004407 0.001031
v -0.006854 0.004407 0.001152
v -0.006666 0.004407 0.001152
v -0.007104 0.004407 -0.000634
v -0.007004 0.004407 -0.001000
v -0.006854 0.004407 -0.001125
v -0.006666 0.004407 -0.001126
v 0.000036 -0.004641 0.001152
v 0.000036 -0.004641 -0.001126
v -0.007173 -0.004641 0.000017
v -0.006666 -0.004641 0.001152
v -0.007104 -0.004641 0.000667
v -0.006854 -0.004641 0.001152
v -0.007004 -0.004641 0.001032
v -0.007104 -0.004641 -0.000634
v -0.006666 -0.004641 -0.001126
v -0.007004 -0.004641 -0.000999
v -0.006854 -0.004641 -0.001125
v -0.006854 0.004407 0.001152
v -0.006854 0.004407 -0.001125
v -0.006666 0.004407 0.000013
v -0.006854 0.004407 0.000014
v 0.000036 0.004407 0.000013
v -0.006854 0.004407 0.000014
v -0.006666 0.004407 0.000583
v -0.006854 0.004407 0.000583
v -0.006854 0.004407 0.000583
v 0.000036 0.004407 0.000583
v 0.000036 0.004407 -0.000556
v -0.006666 0.004407 -0.000556
v -0.006854 0.004407 -0.000556
v -0.006854 0.004407 -0.000556
v -0.006885 -0.004641 -0.000595
v -0.006885 -0.004641 0.000625
v -0.006666 -0.004641 0.000013
v 0.000036 -0.004641 0.000013
v 0.000036 -0.004641 0.000583
v -0.006666 -0.004641 0.000583
v -0.006666 -0.004641 -0.000556
v -0.006919 -0.004641 0.000015
v 0.000036 -0.004641 -0.000556
vn -1.0000 -0.0000 -0.0000
vn -0.9827 -0.0000 0.1850
vn -0.9827 -0.0000 0.1849
vn -0.9827 -0.0000 -0.1849
vn -0.9827 -0.0000 -0.1850
vn -0.0000 -0.0000 -1.0000
vn -0.0008 -0.0000 -1.0000
vn -0.8363 -0.0000 0.5483
vn -0.3320 -0.0000 0.9433
vn -0.0000 -0.0000 1.0000
vn -0.8417 -0.0000 -0.5400
vn -0.3421 -0.0000 -0.9397
vn -0.0000 1.0000 -0.0000
vn -0.0000 -1.0000 -0.0000
vt 0.641473 0.052038
vt 0.641473 0.052835
vt 0.630442 0.052834
vt 0.630442 0.052037
vt 0.641473 0.051241
vt 0.630442 0.051240
vt 0.641473 0.042140
vt 0.641473 0.050311
vt 0.630442 0.050311
vt 0.630442 0.042140
vt 0.641473 0.053297
vt 0.630442 0.053296
vt 0.641473 0.053531
vt 0.630442 0.053531
vt 0.641473 0.053760
vt 0.630442 0.053760
vt 0.630442 0.050778
vt 0.641473 0.050779
vt 0.630442 0.050540
vt 0.641473 0.050540
vt 0.630442 0.061931
vt 0.641473 0.061931
vt 0.640954 0.036884
vt 0.632782 0.036923
vt 0.632795 0.036191
vt 0.640954 0.036191
vt 0.632529 0.036923
vt 0.632519 0.036185
vt 0.632561 0.038260
vt 0.632580 0.038972
vt 0.632579 0.038972
vt 0.632560 0.038260
vt 0.632368 0.038800
vt 0.632257 0.038350
vt 0.632529 0.036923
vt 0.632556 0.037599
vt 0.632146 0.037606
vt 0.632213 0.036841
vt 0.632557 0.037599
vt 0.632787 0.038265
vt 0.632793 0.037604
vt 0.640954 0.038270
vt 0.640954 0.037577
vt 0.632518 0.036185
vt 0.632306 0.036367
vt 0.640954 0.038962
vt 0.632809 0.038964
vt 0.613032 0.052987
vt 0.613032 0.041212
vt 0.614033 0.041212
vt 0.614033 0.052987
vt 0.613106 0.053372
vt 0.614033 0.053317
vt 0.613822 0.053582
vt 0.613179 0.053757
vt 0.610963 0.053372
vt 0.612034 0.053433
vt 0.612037 0.053878
vt 0.610895 0.053757
vt 0.611031 0.052987
vt 0.611031 0.041212
vt 0.612032 0.041212
vt 0.612032 0.052987
vt 0.610031 0.052987
vt 0.610031 0.041212
vt 0.610031 0.053317
vt 0.610253 0.053582
s 1
usemtl Material
f 14/1/1 16/2/2 4/3/3 3/4/1
f 19/5/4 14/1/1 3/4/1 8/6/5
f 13/7/6 20/8/7 11/9/7 2/10/6
f 4/3/3 16/2/2 18/11/8 5/12/8
f 5/12/8 18/11/8 17/13/9 6/14/9
f 6/14/9 17/13/9 15/15/10 7/16/10
f 19/5/4 8/6/5 9/17/11 21/18/11
f 21/18/11 9/17/11 10/19/12 22/20/12
f 22/20/12 10/19/12 11/9/7 20/8/7
f 1/21/10 7/16/10 15/15/10 12/22/10
f 32/23/13 29/24/13 7/25/13 1/26/13
f 29/24/13 30/27/13 6/28/13 7/25/13
f 35/29/13 10/30/13 24/31/13 36/32/13
f 36/32/13 24/31/13 9/33/13 8/34/13
f 31/35/13 28/36/13 3/37/13 4/38/13
f 30/27/13 26/39/13 28/36/13 31/35/13
f 34/40/13 35/29/13 26/39/13 25/41/13
f 33/42/13 34/40/13 25/41/13 27/43/13
f 6/28/13 30/27/13 31/35/13 23/44/13
f 23/44/13 31/35/13 4/38/13 5/45/13
f 25/41/13 26/39/13 30/27/13 29/24/13
f 27/43/13 25/41/13 29/24/13 32/23/13
f 2/46/13 11/47/13 34/40/13 33/42/13
f 11/47/13 10/30/13 35/29/13 34/40/13
f 28/36/13 36/32/13 8/34/13 3/37/13
f 26/39/13 35/29/13 36/32/13 28/36/13
f 42/48/14 41/49/14 12/50/14 15/51/14
f 38/52/14 17/53/14 18/54/14 16/55/14
f 37/56/14 44/57/14 14/58/14 19/59/14
f 43/60/14 45/61/14 40/62/14 39/63/14
f 44/57/14 38/52/14 16/55/14 14/58/14
f 39/63/14 40/62/14 41/49/14 42/48/14
f 20/64/14 13/65/14 45/61/14 43/60/14
f 22/66/14 37/56/14 19/59/14 21/67/14
f 20/64/14 43/60/14 37/56/14 22/66/14
f 39/63/14 42/48/14 38/52/14 44/57/14
f 43/60/14 39/63/14 44/57/14 37/56/14
f 42/48/14 15/51/14 17/53/14 38/52/14
