# Blender 4.0.2
# www.blender.org
mtllib Marco_Izquierda_Esquina.mtl
o Esquina_izquierda
v 0.000036 -0.000552 0.002753
v 0.000036 0.001705 0.002751
v -0.007173 0.000600 0.002752
v -0.006666 -0.000552 0.002753
v -0.007104 -0.000048 0.002753
v -0.006854 -0.000552 0.002753
v -0.007004 -0.000412 0.002753
v -0.007104 0.001248 0.002752
v -0.006666 0.001705 0.002751
v -0.007004 0.001704 0.002751
v -0.006854 0.001705 0.002751
v -0.006666 -0.001261 -0.001482
v -0.006854 -0.001261 -0.001481
v -0.007004 -0.001261 -0.001328
v -0.007104 -0.001260 -0.000973
v -0.006666 -0.001257 0.000796
v -0.006854 -0.001257 0.000796
v -0.007004 -0.001257 0.000644
v -0.007104 -0.001258 0.000289
v -0.007173 -0.001259 -0.000342
v 0.000036 -0.001261 -0.001482
v 0.000036 -0.001257 0.000796
v 0.000036 -0.002653 0.000796
v 0.000036 -0.002653 -0.001482
v -0.007173 -0.002653 -0.000341
v -0.007104 -0.002653 0.000309
v -0.007004 -0.002653 0.000674
v -0.006854 -0.002653 0.000796
v -0.006666 -0.002653 0.000796
v -0.007104 -0.002653 -0.000991
v -0.007004 -0.002653 -0.001357
v -0.006854 -0.002653 -0.001482
v -0.006666 -0.002653 -0.001482
v 0.000036 0.001705 0.001731
v -0.006666 0.001705 0.001731
v -0.006854 -0.000552 0.001737
v -0.006854 0.001705 0.001731
v -0.007173 0.000571 0.001734
v -0.007004 -0.000440 0.001737
v -0.007104 -0.000076 0.001736
v -0.007104 0.001218 0.001733
v -0.007004 0.001704 0.001732
v 0.000036 -0.000552 0.001737
v -0.006666 -0.000552 0.001737
v 0.000036 0.000614 -0.000679
v -0.006666 0.000614 -0.000679
v -0.006854 0.000607 -0.000670
v -0.007104 -0.000309 0.000471
v -0.007004 0.000551 -0.000591
v -0.006666 -0.000552 0.000796
v -0.006854 -0.000552 0.000796
v -0.007173 -0.000019 0.000066
v -0.007004 -0.000472 0.000698
v -0.007104 0.000270 -0.000339
v 0.000036 -0.000552 0.000796
v -0.006854 -0.000552 0.001266
v -0.007173 0.000276 0.000900
v -0.007004 -0.000456 0.001217
v -0.007104 0.000744 0.000697
v 0.000036 -0.000552 0.001266
v 0.000036 0.001319 0.000226
v -0.006666 0.001319 0.000226
v -0.006854 0.001315 0.000231
v -0.007104 -0.000192 0.001103
v -0.007004 0.001287 0.000270
v -0.006666 -0.000552 0.001266
v 0.000036 -0.000328 -0.001220
v -0.006666 -0.000328 -0.001220
v -0.006854 -0.000332 -0.001215
v -0.007104 -0.000784 0.000380
v -0.007004 -0.000360 -0.001099
v -0.006666 -0.000905 0.000796
v -0.006854 -0.000905 0.000796
v -0.007173 -0.000639 -0.000138
v -0.007004 -0.000865 0.000671
v -0.007104 -0.000495 -0.000656
v 0.000036 -0.000905 0.000796
vn -0.9821 0.0028 0.1883
vn -0.8497 0.0067 0.5272
vn -0.8527 -0.0140 0.5223
vn -0.9816 -0.0160 0.1901
vn -1.0000 0.0007 -0.0000
vn -0.9999 0.0071 -0.0112
vn -0.3659 0.0044 -0.9306
vn -0.8526 0.0064 -0.5225
vn -0.8469 0.0775 -0.5261
vn -0.3560 0.1259 -0.9260
vn -0.3601 0.0043 0.9329
vn -0.3621 -0.0050 0.9321
vn -0.9821 0.0026 -0.1882
vn -0.9819 0.0329 -0.1868
vn -0.0008 0.0005 -1.0000
vn -0.0045 0.1374 -0.9905
vn -0.0000 -0.0000 1.0000
vn -0.0000 0.0005 -1.0000
vn -0.0000 0.1367 -0.9906
vn -0.0000 -1.0000 -0.0000
vn -0.7071 0.6358 -0.3093
vn -0.9876 0.1432 -0.0638
vn -0.9880 0.1515 -0.0289
vn -0.6377 0.7633 -0.1038
vn -0.9694 -0.2425 0.0387
vn -0.7819 -0.6228 0.0277
vn -0.8251 -0.5647 0.0173
vn -0.9811 -0.1924 0.0193
vn -1.0000 -0.0041 -0.0070
vn -0.9999 0.0108 -0.0078
vn -0.1621 0.8794 -0.4476
vn -0.0366 0.9910 -0.1291
vn -0.2858 -0.9583 0.0071
vn -0.3213 -0.9470 0.0063
vn -0.0151 0.8967 -0.4424
vn -0.0033 0.9921 -0.1257
vn -0.0000 0.8976 -0.4407
vn -0.0000 0.9921 -0.1253
vn -0.9875 0.1575 -0.0031
vn -0.6316 0.7753 -0.0021
vn -0.8444 -0.5357 0.0092
vn -0.9828 -0.1844 0.0051
vn -1.0000 0.0019 -0.0001
vn -0.0025 1.0000 -0.0002
vn -0.3425 -0.9395 0.0055
vn -0.0002 1.0000 -0.0002
vn -0.0000 1.0000 -0.0002
vn -0.3434 -0.0148 0.9391
vn -0.0000 -0.7071 0.7071
vn -0.4361 -0.6583 0.6136
vn -1.0000 0.0060 0.0016
vn -0.9746 -0.0382 0.2207
vn -0.9837 -0.1282 0.1265
vn -0.9992 0.0314 -0.0240
vn -0.0000 0.3870 -0.9221
vn -0.0162 0.3884 -0.9213
vn -0.0240 0.6552 -0.7551
vn -0.0000 0.6556 -0.7551
vn -0.3392 0.3618 -0.8684
vn -0.2784 0.6264 -0.7281
vn -0.8253 -0.0367 0.5636
vn -0.8972 -0.3296 0.2940
vn -0.8288 0.2175 -0.5155
vn -0.7910 0.4014 -0.4618
vn -0.9829 0.0684 -0.1710
vn -0.9843 0.1136 -0.1351
vt 0.587351 0.060681
vt 0.587534 0.059912
vt 0.590545 0.060754
vt 0.590246 0.061533
vt 0.587003 0.061944
vt 0.589683 0.062785
vt 0.586361 0.064278
vt 0.586453 0.063910
vt 0.588957 0.064530
vt 0.588844 0.064892
vt 0.587629 0.059503
vt 0.590687 0.060283
vt 0.586643 0.063196
vt 0.589196 0.063909
vt 0.586279 0.064621
vt 0.588782 0.065219
vt 0.587721 0.059100
vt 0.590797 0.059866
vt 0.585511 0.076862
vt 0.588054 0.077022
vt 0.587720 0.043973
vt 0.590868 0.043942
vt 0.593829 0.059930
vt 0.593627 0.043925
vt 0.594723 0.043914
vt 0.594962 0.059689
vt 0.594052 0.064987
vt 0.594197 0.063800
vt 0.596326 0.063817
vt 0.596603 0.064672
vt 0.593973 0.061604
vt 0.593963 0.060857
vt 0.595167 0.060528
vt 0.595421 0.061324
vt 0.594060 0.062785
vt 0.595897 0.062627
vt 0.594033 0.065249
vt 0.596642 0.064938
vt 0.593948 0.060404
vt 0.595060 0.060113
vt 0.594048 0.065563
vt 0.596689 0.065267
vt 0.593845 0.077280
vt 0.596721 0.077334
vt 0.597046 0.043892
vt 0.597193 0.059217
vt 0.598262 0.063399
vt 0.598448 0.064337
vt 0.597373 0.060045
vt 0.597567 0.060813
vt 0.597927 0.062108
vt 0.598499 0.064627
vt 0.597276 0.059614
vt 0.598555 0.064979
vt 0.598596 0.077334
vt 0.591533 0.060509
vt 0.591641 0.060047
vt 0.592566 0.060179
vt 0.592592 0.060783
vt 0.591009 0.062988
vt 0.591324 0.061797
vt 0.592422 0.062252
vt 0.592277 0.063390
vt 0.589798 0.077115
vt 0.590413 0.065443
vt 0.592186 0.065601
vt 0.591759 0.077208
vt 0.590448 0.065128
vt 0.592199 0.065298
vt 0.591477 0.061013
vt 0.592557 0.061428
vt 0.590523 0.064812
vt 0.592226 0.065008
vt 0.590717 0.064007
vt 0.592163 0.064337
vt 0.591698 0.043939
vt 0.592529 0.043934
s 1
usemtl Material
f 26/1/1 27/2/2 18/3/3 19/4/4
f 25/5/5 26/1/1 19/4/4 20/6/6
f 32/7/7 31/8/8 14/9/9 13/10/10
f 27/2/2 28/11/11 17/12/12 18/3/3
f 30/13/13 25/5/5 20/6/6 15/14/14
f 33/15/15 32/7/7 13/10/10 12/16/16
f 28/11/11 29/17/17 16/18/17 17/12/12
f 24/19/18 33/15/15 12/16/16 21/20/19
f 29/17/17 23/21/17 22/22/17 16/18/17
f 31/8/8 30/13/13 15/14/14 14/9/9
f 66/23/20 60/24/20 43/25/20 44/26/20
f 65/27/21 59/28/22 41/29/23 42/30/24
f 64/31/25 58/32/26 39/33/27 40/34/28
f 59/28/22 57/35/29 38/36/30 41/29/23
f 63/37/31 65/27/21 42/30/24 37/38/32
f 58/32/26 56/39/33 36/40/34 39/33/27
f 62/41/35 63/37/31 37/38/32 35/42/36
f 61/43/37 62/41/35 35/42/36 34/44/38
f 57/35/29 64/31/25 40/34/28 38/36/30
f 56/39/33 66/23/20 44/26/20 36/40/34
f 44/26/20 43/25/20 1/45/20 4/46/20
f 42/30/24 41/29/23 8/47/39 10/48/40
f 40/34/28 39/33/27 7/49/41 5/50/42
f 41/29/23 38/36/30 3/51/43 8/47/39
f 37/38/32 42/30/24 10/48/40 11/52/44
f 39/33/27 36/40/34 6/53/45 7/49/41
f 35/42/36 37/38/32 11/52/44 9/54/46
f 34/44/38 35/42/36 9/54/46 2/55/47
f 38/36/30 40/34/28 5/50/42 3/51/43
f 36/40/34 44/26/20 4/46/20 6/53/45
f 73/56/48 72/57/17 50/58/49 51/59/50
f 74/60/51 70/61/52 48/62/53 52/63/54
f 67/64/55 68/65/56 46/66/57 45/67/58
f 68/65/56 69/68/59 47/69/60 46/66/57
f 75/70/61 73/56/48 51/59/50 53/71/62
f 69/68/59 71/72/63 49/73/64 47/69/60
f 76/74/65 74/60/51 52/63/54 54/75/66
f 70/61/52 75/70/61 53/71/62 48/62/53
f 71/72/63 76/74/65 54/75/66 49/73/64
f 72/57/17 77/76/17 55/77/49 50/58/49
f 51/59/50 50/58/49 66/23/20 56/39/33
f 52/63/54 48/62/53 64/31/25 57/35/29
f 45/67/58 46/66/57 62/41/35 61/43/37
f 46/66/57 47/69/60 63/37/31 62/41/35
f 53/71/62 51/59/50 56/39/33 58/32/26
f 47/69/60 49/73/64 65/27/21 63/37/31
f 54/75/66 52/63/54 57/35/29 59/28/22
f 48/62/53 53/71/62 58/32/26 64/31/25
f 49/73/64 54/75/66 59/28/22 65/27/21
f 50/58/49 55/77/49 60/24/20 66/23/20
f 16/18/17 22/22/17 77/76/17 72/57/17
f 14/9/9 15/14/14 76/74/65 71/72/63
f 19/4/4 18/3/3 75/70/61 70/61/52
f 15/14/14 20/6/6 74/60/51 76/74/65
f 13/10/10 14/9/9 71/72/63 69/68/59
f 18/3/3 17/12/12 73/56/48 75/70/61
f 12/16/16 13/10/10 69/68/59 68/65/56
f 21/20/19 12/16/16 68/65/56 67/64/55
f 20/6/6 19/4/4 70/61/52 74/60/51
f 17/12/12 16/18/17 72/57/17 73/56/48
