# Blender 4.0.1
# www.blender.org
mtllib Esquina izquierda.mtl
o Esquina_izquierda
v 0.000036 -0.000552 0.002753
v 0.000036 0.001705 0.002751
v -0.007173 0.000600 0.002752
v -0.006666 -0.000552 0.002753
v -0.007104 -0.000048 0.002753
v -0.006854 -0.000552 0.002753
v -0.007004 -0.000412 0.002753
v -0.007104 0.001248 0.002752
v -0.006666 0.001705 0.002751
v -0.007004 0.001704 0.002751
v -0.006854 0.001705 0.002751
v -0.006666 -0.001261 -0.001482
v -0.006854 -0.001261 -0.001481
v -0.007004 -0.001261 -0.001328
v -0.007104 -0.001260 -0.000973
v -0.006666 -0.001257 0.000796
v -0.006854 -0.001257 0.000796
v -0.007004 -0.001257 0.000644
v -0.007104 -0.001258 0.000289
v -0.007173 -0.001259 -0.000342
v 0.000036 -0.001261 -0.001482
v 0.000036 -0.001257 0.000796
v 0.000036 -0.002653 0.000796
v 0.000036 -0.002653 -0.001482
v -0.007173 -0.002653 -0.000341
v -0.007104 -0.002653 0.000309
v -0.007004 -0.002653 0.000674
v -0.006854 -0.002653 0.000796
v -0.006666 -0.002653 0.000796
v -0.007104 -0.002653 -0.000991
v -0.007004 -0.002653 -0.001357
v -0.006854 -0.002653 -0.001482
v -0.006666 -0.002653 -0.001482
v 0.000036 0.001705 0.001731
v -0.006666 0.001705 0.001731
v -0.006854 -0.000552 0.001737
v -0.006854 0.001705 0.001731
v -0.007173 0.000571 0.001734
v -0.007004 -0.000440 0.001737
v -0.007104 -0.000076 0.001736
v -0.007104 0.001218 0.001733
v -0.007004 0.001704 0.001732
v 0.000036 -0.000552 0.001737
v -0.006666 -0.000552 0.001737
v 0.000036 0.000614 -0.000679
v -0.006666 0.000614 -0.000679
v -0.006854 0.000607 -0.000670
v -0.007104 -0.000309 0.000471
v -0.007004 0.000551 -0.000591
v -0.006666 -0.000552 0.000796
v -0.006854 -0.000552 0.000796
v -0.007173 -0.000019 0.000066
v -0.007004 -0.000472 0.000698
v -0.007104 0.000270 -0.000339
v 0.000036 -0.000552 0.000796
v -0.006854 -0.000552 0.001266
v -0.007173 0.000276 0.000900
v -0.007004 -0.000456 0.001217
v -0.007104 0.000744 0.000697
v 0.000036 -0.000552 0.001266
v 0.000036 0.001319 0.000226
v -0.006666 0.001319 0.000226
v -0.006854 0.001315 0.000231
v -0.007104 -0.000192 0.001103
v -0.007004 0.001287 0.000270
v -0.006666 -0.000552 0.001266
v 0.000036 -0.000328 -0.001220
v -0.006666 -0.000328 -0.001220
v -0.006854 -0.000332 -0.001215
v -0.007104 -0.000784 0.000380
v -0.007004 -0.000360 -0.001099
v -0.006666 -0.000905 0.000796
v -0.006854 -0.000905 0.000796
v -0.007173 -0.000639 -0.000138
v -0.007004 -0.000865 0.000671
v -0.007104 -0.000495 -0.000656
v 0.000036 -0.000905 0.000796
vn -0.9821 0.0028 0.1883
vn -0.8497 0.0067 0.5272
vn -0.8527 -0.0140 0.5223
vn -0.9816 -0.0160 0.1901
vn -1.0000 0.0007 -0.0000
vn -0.9999 0.0071 -0.0112
vn -0.3659 0.0044 -0.9306
vn -0.8526 0.0064 -0.5225
vn -0.8469 0.0775 -0.5261
vn -0.3560 0.1259 -0.9260
vn -0.3601 0.0043 0.9329
vn -0.3621 -0.0050 0.9321
vn -0.9821 0.0026 -0.1882
vn -0.9819 0.0329 -0.1868
vn -0.0008 0.0005 -1.0000
vn -0.0045 0.1374 -0.9905
vn -0.0000 -0.0000 1.0000
vn -0.0000 0.0005 -1.0000
vn -0.0000 0.1367 -0.9906
vn -0.0000 -1.0000 -0.0000
vn -0.7071 0.6358 -0.3093
vn -0.9876 0.1432 -0.0638
vn -0.9880 0.1515 -0.0289
vn -0.6377 0.7633 -0.1038
vn -0.9694 -0.2425 0.0387
vn -0.7819 -0.6228 0.0277
vn -0.8251 -0.5647 0.0173
vn -0.9811 -0.1924 0.0193
vn -1.0000 -0.0041 -0.0070
vn -0.9999 0.0108 -0.0078
vn -0.1621 0.8794 -0.4476
vn -0.0366 0.9910 -0.1291
vn -0.2858 -0.9583 0.0071
vn -0.3213 -0.9470 0.0063
vn -0.0151 0.8967 -0.4424
vn -0.0033 0.9921 -0.1257
vn -0.0000 0.8976 -0.4407
vn -0.0000 0.9921 -0.1253
vn -0.9875 0.1575 -0.0031
vn -0.6316 0.7753 -0.0021
vn -0.8444 -0.5357 0.0092
vn -0.9828 -0.1844 0.0051
vn -1.0000 0.0019 -0.0001
vn -0.0025 1.0000 -0.0002
vn -0.3425 -0.9395 0.0055
vn -0.0002 1.0000 -0.0002
vn -0.0000 1.0000 -0.0002
vn -0.3434 -0.0148 0.9391
vn -0.0000 -0.7071 0.7071
vn -0.4361 -0.6583 0.6136
vn -1.0000 0.0060 0.0016
vn -0.9746 -0.0382 0.2207
vn -0.9837 -0.1282 0.1265
vn -0.9992 0.0314 -0.0240
vn -0.0000 0.3870 -0.9221
vn -0.0162 0.3884 -0.9213
vn -0.0240 0.6552 -0.7551
vn -0.0000 0.6556 -0.7551
vn -0.3392 0.3618 -0.8684
vn -0.2784 0.6264 -0.7281
vn -0.8253 -0.0367 0.5636
vn -0.8972 -0.3296 0.2940
vn -0.8288 0.2175 -0.5155
vn -0.7910 0.4014 -0.4618
vn -0.9829 0.0684 -0.1710
vn -0.9843 0.1136 -0.1351
vt 0.672171 0.251088
vt 0.674918 0.239603
vt 0.719908 0.252184
vt 0.715439 0.263818
vt 0.666984 0.269956
vt 0.707028 0.282530
vt 0.657388 0.304830
vt 0.658755 0.299332
vt 0.696177 0.308608
vt 0.694485 0.314003
vt 0.676340 0.233480
vt 0.722024 0.245146
vt 0.661592 0.288664
vt 0.699750 0.299327
vt 0.656156 0.309960
vt 0.693559 0.318899
vt 0.677707 0.227465
vt 0.723665 0.238915
vt 0.644679 0.492879
vt 0.682679 0.495263
vt 0.677689 0.001430
vt 0.724737 0.000958
vt 0.768976 0.239862
vt 0.765965 0.000717
vt 0.782330 0.000543
vt 0.785899 0.236271
vt 0.772306 0.315429
vt 0.774468 0.297700
vt 0.806292 0.297942
vt 0.810425 0.310724
vt 0.771134 0.264875
vt 0.770980 0.253713
vt 0.788974 0.248800
vt 0.792764 0.260698
vt 0.772431 0.282521
vt 0.799881 0.280159
vt 0.772020 0.319343
vt 0.811011 0.314698
vt 0.770755 0.246945
vt 0.787366 0.242594
vt 0.772251 0.324033
vt 0.811715 0.319607
vt 0.769219 0.499121
vt 0.812185 0.499923
vt 0.817045 0.000209
vt 0.819249 0.229210
vt 0.835224 0.291695
vt 0.838001 0.305717
vt 0.821939 0.241591
vt 0.824825 0.253059
vt 0.830208 0.272411
vt 0.838753 0.310054
vt 0.820483 0.235147
vt 0.839597 0.315307
vt 0.840209 0.499923
vt 0.734675 0.248522
vt 0.736286 0.241612
vt 0.750101 0.243590
vt 0.750488 0.252615
vt 0.726844 0.285561
vt 0.731546 0.267761
vt 0.747948 0.274566
vt 0.745784 0.291568
vt 0.708736 0.496658
vt 0.717940 0.322243
vt 0.744419 0.324605
vt 0.738048 0.498050
vt 0.718459 0.317540
vt 0.744619 0.320077
vt 0.733838 0.256046
vt 0.749977 0.262248
vt 0.719569 0.312810
vt 0.745027 0.315750
vt 0.722475 0.300782
vt 0.744086 0.305721
vt 0.737131 0.000914
vt 0.749556 0.000851
s 1
usemtl Laberinto_piezas
f 26/1/1 27/2/2 18/3/3 19/4/4
f 25/5/5 26/1/1 19/4/4 20/6/6
f 32/7/7 31/8/8 14/9/9 13/10/10
f 27/2/2 28/11/11 17/12/12 18/3/3
f 30/13/13 25/5/5 20/6/6 15/14/14
f 33/15/15 32/7/7 13/10/10 12/16/16
f 28/11/11 29/17/17 16/18/17 17/12/12
f 24/19/18 33/15/15 12/16/16 21/20/19
f 29/17/17 23/21/17 22/22/17 16/18/17
f 31/8/8 30/13/13 15/14/14 14/9/9
f 66/23/20 60/24/20 43/25/20 44/26/20
f 65/27/21 59/28/22 41/29/23 42/30/24
f 64/31/25 58/32/26 39/33/27 40/34/28
f 59/28/22 57/35/29 38/36/30 41/29/23
f 63/37/31 65/27/21 42/30/24 37/38/32
f 58/32/26 56/39/33 36/40/34 39/33/27
f 62/41/35 63/37/31 37/38/32 35/42/36
f 61/43/37 62/41/35 35/42/36 34/44/38
f 57/35/29 64/31/25 40/34/28 38/36/30
f 56/39/33 66/23/20 44/26/20 36/40/34
f 44/26/20 43/25/20 1/45/20 4/46/20
f 42/30/24 41/29/23 8/47/39 10/48/40
f 40/34/28 39/33/27 7/49/41 5/50/42
f 41/29/23 38/36/30 3/51/43 8/47/39
f 37/38/32 42/30/24 10/48/40 11/52/44
f 39/33/27 36/40/34 6/53/45 7/49/41
f 35/42/36 37/38/32 11/52/44 9/54/46
f 34/44/38 35/42/36 9/54/46 2/55/47
f 38/36/30 40/34/28 5/50/42 3/51/43
f 36/40/34 44/26/20 4/46/20 6/53/45
f 73/56/48 72/57/17 50/58/49 51/59/50
f 74/60/51 70/61/52 48/62/53 52/63/54
f 67/64/55 68/65/56 46/66/57 45/67/58
f 68/65/56 69/68/59 47/69/60 46/66/57
f 75/70/61 73/56/48 51/59/50 53/71/62
f 69/68/59 71/72/63 49/73/64 47/69/60
f 76/74/65 74/60/51 52/63/54 54/75/66
f 70/61/52 75/70/61 53/71/62 48/62/53
f 71/72/63 76/74/65 54/75/66 49/73/64
f 72/57/17 77/76/17 55/77/49 50/58/49
f 51/59/50 50/58/49 66/23/20 56/39/33
f 52/63/54 48/62/53 64/31/25 57/35/29
f 45/67/58 46/66/57 62/41/35 61/43/37
f 46/66/57 47/69/60 63/37/31 62/41/35
f 53/71/62 51/59/50 56/39/33 58/32/26
f 47/69/60 49/73/64 65/27/21 63/37/31
f 54/75/66 52/63/54 57/35/29 59/28/22
f 48/62/53 53/71/62 58/32/26 64/31/25
f 49/73/64 54/75/66 59/28/22 65/27/21
f 50/58/49 55/77/49 60/24/20 66/23/20
f 16/18/17 22/22/17 77/76/17 72/57/17
f 14/9/9 15/14/14 76/74/65 71/72/63
f 19/4/4 18/3/3 75/70/61 70/61/52
f 15/14/14 20/6/6 74/60/51 76/74/65
f 13/10/10 14/9/9 71/72/63 69/68/59
f 18/3/3 17/12/12 73/56/48 75/70/61
f 12/16/16 13/10/10 69/68/59 68/65/56
f 21/20/19 12/16/16 68/65/56 67/64/55
f 20/6/6 19/4/4 70/61/52 74/60/51
f 17/12/12 16/18/17 72/57/17 73/56/48
