# Blender 4.0.1
# www.blender.org
mtllib Esquina derecha.mtl
o Esquina_derecha
v 0.000036 -0.000552 -0.002225
v 0.000036 0.001705 -0.002223
v -0.007173 0.000600 -0.002224
v -0.006666 -0.000552 -0.002225
v -0.007104 -0.000048 -0.002224
v -0.006854 -0.000552 -0.002225
v -0.007004 -0.000412 -0.002225
v -0.007104 0.001248 -0.002223
v -0.006666 0.001705 -0.002223
v -0.007004 0.001704 -0.002223
v -0.006854 0.001705 -0.002223
v -0.006666 -0.001261 0.002010
v -0.006854 -0.001261 0.002010
v -0.007004 -0.001261 0.001856
v -0.007104 -0.001260 0.001501
v -0.006666 -0.001257 -0.000267
v -0.006854 -0.001257 -0.000267
v -0.007004 -0.001257 -0.000116
v -0.007104 -0.001258 0.000239
v -0.007173 -0.001259 0.000870
v 0.000036 -0.001261 0.002010
v 0.000036 -0.001257 -0.000267
v 0.000036 -0.002653 -0.000267
v 0.000036 -0.002653 0.002011
v -0.007173 -0.002653 0.000870
v -0.007104 -0.002653 0.000220
v -0.007004 -0.002653 -0.000146
v -0.006854 -0.002653 -0.000267
v -0.006666 -0.002653 -0.000267
v -0.007104 -0.002653 0.001520
v -0.007004 -0.002653 0.001885
v -0.006854 -0.002653 0.002010
v -0.006666 -0.002653 0.002011
v 0.000036 0.001705 -0.001203
v -0.006666 0.001705 -0.001203
v -0.006854 -0.000552 -0.001209
v -0.006854 0.001705 -0.001203
v -0.007173 0.000571 -0.001206
v -0.007004 -0.000440 -0.001208
v -0.007104 -0.000076 -0.001207
v -0.007104 0.001218 -0.001204
v -0.007004 0.001704 -0.001203
v 0.000036 -0.000552 -0.001209
v -0.006666 -0.000552 -0.001209
v 0.000036 0.000614 0.001208
v -0.006666 0.000614 0.001208
v -0.006854 0.000607 0.001198
v -0.007104 -0.000309 0.000058
v -0.007004 0.000551 0.001120
v -0.006666 -0.000552 -0.000267
v -0.006854 -0.000552 -0.000267
v -0.007173 -0.000019 0.000462
v -0.007004 -0.000472 -0.000170
v -0.007104 0.000270 0.000867
v 0.000036 -0.000552 -0.000267
v -0.006854 -0.000552 -0.000738
v -0.007173 0.000276 -0.000372
v -0.007004 -0.000456 -0.000689
v -0.007104 0.000744 -0.000169
v 0.000036 -0.000552 -0.000738
v 0.000036 0.001319 0.000303
v -0.006666 0.001319 0.000303
v -0.006854 0.001315 0.000298
v -0.007104 -0.000192 -0.000575
v -0.007004 0.001287 0.000258
v -0.006666 -0.000552 -0.000738
v 0.000036 -0.000328 0.001748
v -0.006666 -0.000328 0.001748
v -0.006854 -0.000332 0.001743
v -0.007104 -0.000784 0.000149
v -0.007004 -0.000360 0.001627
v -0.006666 -0.000905 -0.000267
v -0.006854 -0.000905 -0.000267
v -0.007173 -0.000639 0.000666
v -0.007004 -0.000865 -0.000143
v -0.007104 -0.000495 0.001184
v 0.000036 -0.000905 -0.000267
vn -0.9821 0.0028 -0.1883
vn -0.9816 -0.0160 -0.1901
vn -0.8527 -0.0140 -0.5223
vn -0.8497 0.0067 -0.5272
vn -1.0000 0.0007 -0.0000
vn -0.9999 0.0071 0.0112
vn -0.3659 0.0044 0.9306
vn -0.3560 0.1259 0.9260
vn -0.8469 0.0775 0.5261
vn -0.8526 0.0064 0.5225
vn -0.3621 -0.0050 -0.9321
vn -0.3601 0.0043 -0.9329
vn -0.9821 0.0026 0.1882
vn -0.9819 0.0329 0.1868
vn -0.0008 0.0005 1.0000
vn -0.0045 0.1374 0.9905
vn -0.0000 -0.0000 -1.0000
vn -0.0000 0.0005 1.0000
vn -0.0000 0.1367 0.9906
vn -0.0000 -1.0000 -0.0000
vn -0.7071 0.6358 0.3093
vn -0.6377 0.7633 0.1038
vn -0.9880 0.1515 0.0289
vn -0.9876 0.1432 0.0638
vn -0.9694 -0.2425 -0.0387
vn -0.9811 -0.1924 -0.0193
vn -0.8251 -0.5647 -0.0173
vn -0.7819 -0.6228 -0.0277
vn -0.9999 0.0108 0.0078
vn -1.0000 -0.0041 0.0070
vn -0.1621 0.8794 0.4476
vn -0.0366 0.9910 0.1291
vn -0.3213 -0.9470 -0.0063
vn -0.2858 -0.9583 -0.0071
vn -0.0151 0.8967 0.4424
vn -0.0033 0.9921 0.1257
vn -0.0000 0.8976 0.4407
vn -0.0000 0.9921 0.1253
vn -0.6316 0.7753 0.0021
vn -0.9875 0.1575 0.0031
vn -0.9828 -0.1844 -0.0051
vn -0.8444 -0.5357 -0.0092
vn -1.0000 0.0019 0.0001
vn -0.0025 1.0000 0.0002
vn -0.3425 -0.9395 -0.0055
vn -0.0002 1.0000 0.0002
vn -0.0000 1.0000 0.0002
vn -0.3434 -0.0148 -0.9391
vn -0.4361 -0.6583 -0.6136
vn -0.0000 -0.7071 -0.7071
vn -1.0000 0.0060 -0.0016
vn -0.9992 0.0314 0.0240
vn -0.9837 -0.1282 -0.1265
vn -0.9746 -0.0382 -0.2207
vn -0.0000 0.3870 0.9221
vn -0.0000 0.6556 0.7551
vn -0.0240 0.6552 0.7551
vn -0.0162 0.3884 0.9213
vn -0.2784 0.6264 0.7281
vn -0.3392 0.3618 0.8684
vn -0.8253 -0.0367 -0.5636
vn -0.8972 -0.3296 -0.2940
vn -0.7910 0.4014 0.4618
vn -0.8288 0.2175 0.5155
vn -0.9829 0.0684 0.1710
vn -0.9843 0.1136 0.1351
vt 0.812734 0.751354
vt 0.769444 0.764041
vt 0.764987 0.752401
vt 0.809998 0.739864
vt 0.817904 0.770235
vt 0.777837 0.782766
vt 0.827458 0.805133
vt 0.790351 0.814272
vt 0.788664 0.808869
vt 0.826099 0.799633
vt 0.762878 0.745360
vt 0.808582 0.733738
vt 0.823276 0.788958
vt 0.785100 0.799577
vt 0.828683 0.810265
vt 0.791272 0.819173
vt 0.761242 0.739126
vt 0.807221 0.727719
vt 0.839863 0.992724
vt 0.801959 0.995047
vt 0.760371 0.501165
vt 0.807421 0.501675
vt 0.715931 0.740034
vt 0.699011 0.736430
vt 0.702777 0.500703
vt 0.719142 0.500890
vt 0.712534 0.815571
vt 0.674446 0.810841
vt 0.678584 0.798068
vt 0.710389 0.797851
vt 0.713752 0.765041
vt 0.692131 0.760848
vt 0.695928 0.748955
vt 0.713916 0.753881
vt 0.685003 0.780298
vt 0.712439 0.782681
vt 0.712816 0.819482
vt 0.673857 0.814811
vt 0.697541 0.742752
vt 0.714146 0.747114
vt 0.712581 0.824168
vt 0.673150 0.819716
vt 0.715578 0.998986
vt 0.672667 0.999791
vt 0.665672 0.729348
vt 0.668061 0.500340
vt 0.646891 0.805825
vt 0.649670 0.791812
vt 0.660082 0.753191
vt 0.662974 0.741726
vt 0.654691 0.772536
vt 0.646138 0.810159
vt 0.664434 0.735283
vt 0.645293 0.815408
vt 0.644679 0.999791
vt 0.750222 0.748724
vt 0.734406 0.752802
vt 0.734801 0.743777
vt 0.748618 0.741812
vt 0.758012 0.785771
vt 0.739068 0.791752
vt 0.736924 0.774752
vt 0.753331 0.767966
vt 0.775970 0.996515
vt 0.746704 0.997913
vt 0.740386 0.824773
vt 0.766849 0.822465
vt 0.740193 0.820248
vt 0.766341 0.817761
vt 0.751052 0.756249
vt 0.734907 0.762434
vt 0.739791 0.815924
vt 0.765240 0.813029
vt 0.762357 0.800997
vt 0.740746 0.805902
vt 0.735552 0.501037
vt 0.747977 0.501111
s 1
usemtl Laberinto_piezas
f 26/1/1 19/2/2 18/3/3 27/4/4
f 25/5/5 20/6/6 19/2/2 26/1/1
f 32/7/7 13/8/8 14/9/9 31/10/10
f 27/4/4 18/3/3 17/11/11 28/12/12
f 30/13/13 15/14/14 20/6/6 25/5/5
f 33/15/15 12/16/16 13/8/8 32/7/7
f 28/12/12 17/11/11 16/17/17 29/18/17
f 24/19/18 21/20/19 12/16/16 33/15/15
f 29/18/17 16/17/17 22/21/17 23/22/17
f 31/10/10 14/9/9 15/14/14 30/13/13
f 66/23/20 44/24/20 43/25/20 60/26/20
f 65/27/21 42/28/22 41/29/23 59/30/24
f 64/31/25 40/32/26 39/33/27 58/34/28
f 59/30/24 41/29/23 38/35/29 57/36/30
f 63/37/31 37/38/32 42/28/22 65/27/21
f 58/34/28 39/33/27 36/39/33 56/40/34
f 62/41/35 35/42/36 37/38/32 63/37/31
f 61/43/37 34/44/38 35/42/36 62/41/35
f 57/36/30 38/35/29 40/32/26 64/31/25
f 56/40/34 36/39/33 44/24/20 66/23/20
f 44/24/20 4/45/20 1/46/20 43/25/20
f 42/28/22 10/47/39 8/48/40 41/29/23
f 40/32/26 5/49/41 7/50/42 39/33/27
f 41/29/23 8/48/40 3/51/43 38/35/29
f 37/38/32 11/52/44 10/47/39 42/28/22
f 39/33/27 7/50/42 6/53/45 36/39/33
f 35/42/36 9/54/46 11/52/44 37/38/32
f 34/44/38 2/55/47 9/54/46 35/42/36
f 38/35/29 3/51/43 5/49/41 40/32/26
f 36/39/33 6/53/45 4/45/20 44/24/20
f 73/56/48 51/57/49 50/58/50 72/59/17
f 74/60/51 52/61/52 48/62/53 70/63/54
f 67/64/55 45/65/56 46/66/57 68/67/58
f 68/67/58 46/66/57 47/68/59 69/69/60
f 75/70/61 53/71/62 51/57/49 73/56/48
f 69/69/60 47/68/59 49/72/63 71/73/64
f 76/74/65 54/75/66 52/61/52 74/60/51
f 70/63/54 48/62/53 53/71/62 75/70/61
f 71/73/64 49/72/63 54/75/66 76/74/65
f 72/59/17 50/58/50 55/76/50 77/77/17
f 51/57/49 56/40/34 66/23/20 50/58/50
f 52/61/52 57/36/30 64/31/25 48/62/53
f 45/65/56 61/43/37 62/41/35 46/66/57
f 46/66/57 62/41/35 63/37/31 47/68/59
f 53/71/62 58/34/28 56/40/34 51/57/49
f 47/68/59 63/37/31 65/27/21 49/72/63
f 54/75/66 59/30/24 57/36/30 52/61/52
f 48/62/53 64/31/25 58/34/28 53/71/62
f 49/72/63 65/27/21 59/30/24 54/75/66
f 50/58/50 66/23/20 60/26/20 55/76/50
f 16/17/17 72/59/17 77/77/17 22/21/17
f 14/9/9 71/73/64 76/74/65 15/14/14
f 19/2/2 70/63/54 75/70/61 18/3/3
f 15/14/14 76/74/65 74/60/51 20/6/6
f 13/8/8 69/69/60 71/73/64 14/9/9
f 18/3/3 75/70/61 73/56/48 17/11/11
f 12/16/16 68/67/58 69/69/60 13/8/8
f 21/20/19 67/64/55 68/67/58 12/16/16
f 20/6/6 74/60/51 70/63/54 19/2/2
f 17/11/11 73/56/48 72/59/17 16/17/17
