# Blender 4.0.1
# www.blender.org
mtllib Pared horizontal.mtl
o Pared_horizontal
v 0.000036 -0.001056 0.004296
v 0.000036 -0.001056 -0.004293
v 0.000036 0.001202 0.004296
v -0.007173 0.000096 0.004296
v 0.000036 0.001202 -0.004294
v -0.007173 0.000096 -0.004294
v -0.007104 -0.000554 0.004296
v -0.006666 -0.001056 0.004296
v -0.007004 -0.000920 0.004296
v -0.006854 -0.001056 0.004296
v -0.006666 -0.001056 -0.004293
v -0.007104 -0.000551 -0.004293
v -0.006854 -0.001056 -0.004293
v -0.007004 -0.000916 -0.004293
v -0.006666 0.001202 0.004296
v -0.007104 0.000746 0.004296
v -0.006854 0.001201 0.004296
v -0.007004 0.001201 0.004296
v -0.007104 0.000744 -0.004294
v -0.006666 0.001202 -0.004294
v -0.007004 0.001201 -0.004294
v -0.006854 0.001201 -0.004294
v -0.006919 0.000085 -0.004294
v -0.006885 0.000692 0.004296
v -0.006885 -0.000523 0.004296
v -0.006666 0.000073 -0.004294
v 0.000036 0.000073 -0.004294
v 0.000036 -0.000491 -0.004294
v -0.006666 -0.000491 -0.004294
v -0.006666 0.000637 -0.004294
v -0.006885 0.000691 -0.004294
v 0.000036 0.000637 -0.004294
v -0.006666 0.000073 0.004296
v 0.000036 0.000073 0.004296
v -0.006885 -0.000521 -0.004294
v 0.000036 0.000637 0.004296
v -0.006666 0.000637 0.004296
v -0.006919 0.000084 0.004296
v -0.006666 -0.000491 0.004296
v 0.000036 -0.000491 0.004296
vn -1.0000 -0.0000 -0.0000
vn -0.9827 -0.1852 -0.0001
vn -0.9827 -0.1853 -0.0001
vn -0.9871 0.1599 -0.0000
vn -0.0000 1.0000 -0.0000
vn -0.0002 1.0000 -0.0000
vn -0.8539 -0.5204 -0.0002
vn -0.8538 -0.5206 -0.0002
vn -0.3630 -0.9318 -0.0001
vn -0.0000 -1.0000 -0.0000
vn -0.6287 0.7777 -0.0000
vn -0.6285 0.7778 -0.0000
vn -0.0025 1.0000 -0.0000
vn -0.0000 -0.0000 1.0000
vn -0.0000 -0.0005 -1.0000
vn -0.0001 -0.0005 -1.0000
vn -0.0002 -0.0004 -1.0000
vt 0.644240 0.297136
vt 0.644229 0.320839
vt 0.331635 0.320946
vt 0.331635 0.297158
vt 0.644252 0.273434
vt 0.331635 0.273370
vt 0.644261 0.000209
vt 0.644261 0.244114
vt 0.331635 0.244114
vt 0.331635 0.000209
vt 0.644222 0.334585
vt 0.331635 0.334738
vt 0.644221 0.342064
vt 0.331637 0.342113
vt 0.644222 0.348899
vt 0.331638 0.348948
vt 0.331635 0.256419
vt 0.644258 0.256419
vt 0.331635 0.250949
vt 0.644261 0.250949
vt 0.331676 0.592853
vt 0.644260 0.592804
vt 0.498899 0.593271
vt 0.498899 0.837176
vt 0.478362 0.837176
vt 0.478362 0.593271
vt 0.023906 0.663756
vt 0.267811 0.663756
vt 0.267811 0.684293
vt 0.023906 0.684293
vt 0.015937 0.664846
vt 0.017071 0.684293
vt 0.011602 0.679193
vt 0.007967 0.665936
vt 0.541949 0.845145
vt 0.560507 0.844011
vt 0.560483 0.849481
vt 0.543925 0.853115
vt 0.015937 0.620739
vt 0.014686 0.642793
vt 0.005465 0.642366
vt 0.007967 0.618796
vt 0.023906 0.622682
vt 0.267811 0.622683
vt 0.267811 0.643219
vt 0.023906 0.643219
vt 0.023906 0.602145
vt 0.267811 0.602146
vt 0.017071 0.602149
vt 0.011602 0.602173
vt 0.497756 0.845145
vt 0.519853 0.846396
vt 0.520270 0.855617
vt 0.496614 0.853115
vt 0.539973 0.593271
vt 0.539973 0.837176
vt 0.519436 0.837176
vt 0.519436 0.593271
vt 0.560510 0.593271
vt 0.560510 0.837176
vt 0.478362 0.844011
vt 0.483309 0.849481
s 1
usemtl Laberinto_piezas
f 6/1/1 12/2/2 7/3/3 4/4/1
f 19/5/4 6/1/1 4/4/1 16/6/4
f 5/7/5 20/8/6 15/9/6 3/10/5
f 7/3/3 12/2/2 14/11/7 9/12/8
f 9/12/8 14/11/7 13/13/9 10/14/9
f 10/14/9 13/13/9 11/15/10 8/16/10
f 19/5/4 16/6/4 18/17/11 21/18/12
f 21/18/12 18/17/11 17/19/13 22/20/13
f 22/20/13 17/19/13 15/9/6 20/8/6
f 1/21/10 8/16/10 11/15/10 2/22/10
f 40/23/14 39/24/14 8/25/14 1/26/14
f 29/27/15 28/28/15 2/29/15 11/30/15
f 35/31/15 13/32/15 14/33/15 12/34/15
f 24/35/14 17/36/14 18/37/14 16/38/14
f 31/39/16 23/40/15 6/41/15 19/42/16
f 30/43/15 32/44/15 27/45/15 26/46/15
f 23/40/15 35/31/15 12/34/15 6/41/15
f 26/46/15 27/45/15 28/28/15 29/27/15
f 20/47/15 5/48/15 32/44/15 30/43/15
f 22/49/16 31/39/16 19/42/16 21/50/17
f 25/51/14 38/52/14 4/53/14 7/54/14
f 36/55/14 37/56/14 33/57/14 34/58/14
f 3/59/14 15/60/14 37/56/14 36/55/14
f 38/52/14 24/35/14 16/38/14 4/53/14
f 10/61/14 25/51/14 7/54/14 9/62/14
f 34/58/14 33/57/14 39/24/14 40/23/14
f 8/25/14 39/24/14 25/51/14 10/61/14
f 33/57/14 37/56/14 24/35/14 38/52/14
f 39/24/14 33/57/14 38/52/14 25/51/14
f 37/56/14 15/60/14 17/36/14 24/35/14
f 20/47/15 30/43/15 31/39/16 22/49/16
f 26/46/15 29/27/15 35/31/15 23/40/15
f 30/43/15 26/46/15 23/40/15 31/39/16
f 29/27/15 11/30/15 13/32/15 35/31/15
