# Blender 4.0.2
# www.blender.org
mtllib Cereza.mtl
o Cereza
v -0.000024 0.003564 -0.010219
v -0.000024 0.001857 -0.010219
v -0.000024 0.005271 -0.008511
v -0.000024 0.005271 -0.006804
v -0.000024 0.003564 -0.008511
v -0.000024 0.001857 -0.008511
v -0.000024 0.003564 -0.006804
v -0.000024 0.001857 -0.006804
v -0.000024 0.005271 -0.005097
v -0.000024 0.005271 -0.003390
v -0.000024 0.003564 -0.005097
v -0.000024 0.001857 -0.005097
v -0.000024 0.003564 -0.003390
v -0.000024 0.001857 -0.003390
v -0.000024 0.005271 -0.001683
v -0.000024 0.006978 0.000024
v -0.000024 0.005271 0.000024
v -0.000024 0.003564 -0.001683
v -0.000024 0.001857 -0.001683
v -0.000024 0.003564 0.000024
v -0.000024 0.001857 0.000024
v -0.000024 0.000150 -0.010219
v -0.000024 -0.001558 -0.010219
v -0.000024 -0.003265 -0.010219
v -0.000024 -0.004972 -0.010219
v -0.000024 0.000150 -0.008511
v -0.000024 -0.001558 -0.008511
v -0.000024 0.000150 -0.006804
v -0.000024 -0.001558 -0.006804
v -0.000024 -0.003265 -0.008511
v -0.000024 -0.004972 -0.008511
v -0.000024 -0.003265 -0.006804
v -0.000024 -0.004972 -0.006804
v -0.000024 -0.006679 -0.010219
v -0.000024 -0.006679 -0.008511
v -0.000024 -0.008386 -0.008511
v -0.000024 -0.006679 -0.006804
v -0.000024 -0.008386 -0.006804
v -0.000024 0.000150 -0.005097
v -0.000024 -0.001558 -0.005097
v -0.000024 0.000150 -0.003390
v -0.000024 -0.001558 -0.003390
v -0.000024 -0.003265 -0.005097
v -0.000024 -0.004972 -0.005097
v -0.000024 -0.003265 -0.003390
v -0.000024 -0.004972 -0.003390
v -0.000024 0.000150 -0.001683
v -0.000024 -0.001558 -0.001683
v -0.000024 0.000150 0.000024
v -0.000024 -0.001558 0.000024
v -0.000024 -0.003265 -0.001683
v -0.000024 -0.004972 -0.001683
v -0.000024 -0.003265 0.000024
v -0.000024 -0.004972 0.000024
v -0.000024 -0.006679 -0.005097
v -0.000024 -0.008386 -0.005097
v -0.000024 -0.006679 -0.003390
v -0.000024 -0.008386 -0.003390
v -0.000024 -0.006679 -0.001683
v -0.000024 -0.008386 -0.001683
v -0.000024 -0.006679 0.000024
v -0.000024 -0.008386 0.000024
v -0.000024 -0.010093 0.000024
v -0.001732 0.003564 -0.010219
v -0.001732 0.001857 -0.010219
v -0.001732 0.005271 -0.008511
v -0.001732 0.005271 -0.006804
v -0.001732 0.003564 -0.008511
v -0.001732 0.001857 -0.008511
v -0.001732 0.003564 -0.006804
v -0.001732 0.001857 -0.006804
v -0.001732 0.005271 -0.005097
v -0.001732 0.005271 -0.003390
v -0.001732 0.003564 -0.005097
v -0.001732 0.001857 -0.005097
v -0.001732 0.003564 -0.003390
v -0.001732 0.001857 -0.003390
v -0.001732 0.005271 -0.001683
v -0.001732 0.006978 0.000024
v -0.001732 0.005271 0.000024
v -0.001732 0.003564 -0.001683
v -0.001732 0.001857 -0.001683
v -0.001732 0.003564 0.000024
v -0.001732 0.001857 0.000024
v -0.001732 0.000150 -0.010219
v -0.001732 -0.001558 -0.010219
v -0.001732 -0.003265 -0.010219
v -0.001732 -0.004972 -0.010219
v -0.001732 0.000150 -0.008511
v -0.001732 -0.001558 -0.008511
v -0.001732 0.000150 -0.006804
v -0.001732 -0.001558 -0.006804
v -0.001732 -0.003265 -0.008511
v -0.001732 -0.004972 -0.008511
v -0.001732 -0.003265 -0.006804
v -0.001732 -0.004972 -0.006804
v -0.001732 -0.006679 -0.010219
v -0.001732 -0.006679 -0.008511
v -0.001732 -0.008386 -0.008511
v -0.001732 -0.006679 -0.006804
v -0.001732 -0.008386 -0.006804
v -0.001732 0.000150 -0.005097
v -0.001732 -0.001558 -0.005097
v -0.001732 0.000150 -0.003390
v -0.001732 -0.001558 -0.003390
v -0.001732 -0.003265 -0.005097
v -0.001732 -0.004972 -0.005097
v -0.001732 -0.003265 -0.003390
v -0.001732 -0.004972 -0.003390
v -0.001732 0.000150 -0.001683
v -0.001732 -0.001558 -0.001683
v -0.001732 0.000150 0.000024
v -0.001732 -0.001558 0.000024
v -0.001732 -0.003265 -0.001683
v -0.001732 -0.004972 -0.001683
v -0.001732 -0.003265 0.000024
v -0.001732 -0.004972 0.000024
v -0.001732 -0.006679 -0.005097
v -0.001732 -0.008386 -0.005097
v -0.001732 -0.006679 -0.003390
v -0.001732 -0.008386 -0.003390
v -0.001732 -0.006679 -0.001683
v -0.001732 -0.008386 -0.001683
v -0.001732 -0.006679 0.000024
v -0.001732 -0.008386 0.000024
v -0.001732 -0.010093 0.000024
v -0.000024 0.008685 0.001732
v -0.000024 0.008685 0.003439
v -0.000024 0.010393 0.005146
v -0.000024 0.008685 0.005146
v -0.000024 0.010393 0.006853
v -0.000024 0.008685 0.006853
v -0.000024 0.006978 0.001732
v -0.000024 0.005271 0.001732
v -0.000024 0.006978 0.003439
v -0.000024 0.003564 0.001732
v -0.000024 0.001857 0.001732
v -0.000024 0.003564 0.003439
v -0.000024 0.001857 0.003439
v -0.000024 0.006978 0.005146
v -0.000024 0.005271 0.005146
v -0.000024 0.006978 0.006853
v -0.000024 0.005271 0.006853
v -0.000024 0.003564 0.005146
v -0.000024 0.001857 0.005146
v -0.000024 0.003564 0.006853
v -0.000024 0.001857 0.006853
v -0.000024 0.013807 0.008560
v -0.000024 0.012100 0.008560
v -0.000024 0.013807 0.010267
v -0.000024 0.012100 0.010267
v -0.000024 0.010393 0.008560
v -0.000024 0.008685 0.008560
v -0.000024 0.010393 0.010267
v -0.000024 0.008685 0.010267
v -0.000024 0.013807 0.011975
v -0.000024 0.012100 0.011975
v -0.000024 0.010393 0.011975
v -0.000024 0.008685 0.011975
v -0.000024 0.006978 0.008560
v -0.000024 0.005271 0.008560
v -0.000024 0.001857 0.008560
v -0.000024 0.001857 0.010267
v -0.000024 0.000150 0.001732
v -0.000024 -0.001558 0.001732
v -0.000024 0.000150 0.003439
v -0.000024 -0.001558 0.003439
v -0.000024 -0.003265 0.001732
v -0.000024 -0.004972 0.001732
v -0.000024 -0.003265 0.003439
v -0.000024 -0.004972 0.003439
v -0.000024 0.000150 0.005146
v -0.000024 -0.001558 0.005146
v -0.000024 0.000150 0.006853
v -0.000024 -0.001558 0.006853
v -0.000024 -0.003265 0.005146
v -0.000024 -0.004972 0.005146
v -0.000024 -0.003265 0.006853
v -0.000024 -0.004972 0.006853
v -0.000024 -0.006679 0.001732
v -0.000024 -0.008386 0.001732
v -0.000024 -0.006679 0.003439
v -0.000024 -0.008386 0.003439
v -0.000024 -0.010093 0.001732
v -0.000024 -0.011801 0.001732
v -0.000024 -0.010093 0.003439
v -0.000024 -0.011801 0.003439
v -0.000024 -0.006679 0.005146
v -0.000024 -0.008386 0.005146
v -0.000024 -0.006679 0.006853
v -0.000024 -0.008386 0.006853
v -0.000024 -0.010093 0.005146
v -0.000024 -0.011801 0.005146
v -0.000024 -0.010093 0.006853
v -0.000024 -0.011801 0.006853
v -0.000024 0.000150 0.008560
v -0.000024 -0.001558 0.008560
v -0.000024 0.000150 0.010267
v -0.000024 -0.001558 0.010267
v -0.000024 -0.003265 0.008560
v -0.000024 -0.004972 0.008560
v -0.000024 -0.003265 0.010267
v -0.000024 -0.004972 0.010267
v -0.000024 -0.001558 0.011975
v -0.000024 -0.003265 0.011975
v -0.000024 -0.004972 0.011975
v -0.000024 -0.006679 0.008560
v -0.000024 -0.008386 0.008560
v -0.000024 -0.006679 0.010267
v -0.000024 -0.008386 0.010267
v -0.000024 -0.010093 0.008560
v -0.000024 -0.011801 0.008560
v -0.000024 -0.010093 0.010267
v -0.000024 -0.011801 0.010267
v -0.000024 -0.006679 0.011975
v -0.000024 -0.008386 0.011975
v -0.000024 -0.010093 0.011975
v -0.001732 0.008685 0.001732
v -0.001732 0.008685 0.003439
v -0.001732 0.010393 0.005146
v -0.001732 0.008685 0.005146
v -0.001732 0.010393 0.006853
v -0.001732 0.008685 0.006853
v -0.001732 0.006978 0.001732
v -0.001732 0.005271 0.001732
v -0.001732 0.006978 0.003439
v -0.001732 0.003564 0.001732
v -0.001732 0.001857 0.001732
v -0.001732 0.003564 0.003439
v -0.001732 0.001857 0.003439
v -0.001732 0.006978 0.005146
v -0.001732 0.005271 0.005146
v -0.001732 0.006978 0.006853
v -0.001732 0.005271 0.006853
v -0.001732 0.003564 0.005146
v -0.001732 0.001857 0.005146
v -0.001732 0.003564 0.006853
v -0.001732 0.001857 0.006853
v -0.001732 0.013807 0.008560
v -0.001732 0.012100 0.008560
v -0.001732 0.013807 0.010267
v -0.001732 0.012100 0.010267
v -0.001732 0.010393 0.008560
v -0.001732 0.008685 0.008560
v -0.001732 0.010393 0.010267
v -0.001732 0.008685 0.010267
v -0.001732 0.013807 0.011975
v -0.001732 0.012100 0.011975
v -0.001732 0.010393 0.011975
v -0.001732 0.008685 0.011975
v -0.001732 0.006978 0.008560
v -0.001732 0.005271 0.008560
v -0.001732 0.001857 0.008560
v -0.001732 0.001857 0.010267
v -0.001732 0.000150 0.001732
v -0.001732 -0.001558 0.001732
v -0.001732 0.000150 0.003439
v -0.001732 -0.001558 0.003439
v -0.001732 -0.003265 0.001732
v -0.001732 -0.004972 0.001732
v -0.001732 -0.003265 0.003439
v -0.001732 -0.004972 0.003439
v -0.001732 0.000150 0.005146
v -0.001732 -0.001558 0.005146
v -0.001732 0.000150 0.006853
v -0.001732 -0.001558 0.006853
v -0.001732 -0.003265 0.005146
v -0.001732 -0.004972 0.005146
v -0.001732 -0.003265 0.006853
v -0.001732 -0.004972 0.006853
v -0.001732 -0.006679 0.001732
v -0.001732 -0.008386 0.001732
v -0.001732 -0.006679 0.003439
v -0.001732 -0.008386 0.003439
v -0.001732 -0.010093 0.001732
v -0.001732 -0.011801 0.001732
v -0.001732 -0.010093 0.003439
v -0.001732 -0.011801 0.003439
v -0.001732 -0.006679 0.005146
v -0.001732 -0.008386 0.005146
v -0.001732 -0.006679 0.006853
v -0.001732 -0.008386 0.006853
v -0.001732 -0.010093 0.005146
v -0.001732 -0.011801 0.005146
v -0.001732 -0.010093 0.006853
v -0.001732 -0.011801 0.006853
v -0.001732 0.000150 0.008560
v -0.001732 -0.001558 0.008560
v -0.001732 0.000150 0.010267
v -0.001732 -0.001558 0.010267
v -0.001732 -0.003265 0.008560
v -0.001732 -0.004972 0.008560
v -0.001732 -0.003265 0.010267
v -0.001732 -0.004972 0.010267
v -0.001732 -0.001558 0.011975
v -0.001732 -0.003265 0.011975
v -0.001732 -0.004972 0.011975
v -0.001732 -0.006679 0.008560
v -0.001732 -0.008386 0.008560
v -0.001732 -0.006679 0.010267
v -0.001732 -0.008386 0.010267
v -0.001732 -0.010093 0.008560
v -0.001732 -0.011801 0.008560
v -0.001732 -0.010093 0.010267
v -0.001732 -0.011801 0.010267
v -0.001732 -0.006679 0.011975
v -0.001732 -0.008386 0.011975
v -0.001732 -0.010093 0.011975
vn 1.0000 -0.0000 -0.0000
vn -1.0000 -0.0000 -0.0000
vn -0.0000 1.0000 -0.0000
vn -0.0000 -0.0000 -1.0000
vn -0.0000 -0.0000 1.0000
vn -0.0000 -1.0000 -0.0000
s 0
usemtl palette
f 5//1 7//1 8//1 6//1
f 1//1 5//1 6//1 2//1
f 3//1 4//1 7//1 5//1
f 11//1 13//1 14//1 12//1
f 18//1 20//1 21//1 19//1
f 13//1 18//1 19//1 14//1
f 9//1 10//1 13//1 11//1
f 15//1 17//1 20//1 18//1
f 10//1 15//1 18//1 13//1
f 7//1 11//1 12//1 8//1
f 4//1 9//1 11//1 7//1
f 26//1 28//1 29//1 27//1
f 30//1 32//1 33//1 31//1
f 22//1 26//1 27//1 23//1
f 24//1 30//1 31//1 25//1
f 27//1 29//1 32//1 30//1
f 23//1 27//1 30//1 24//1
f 35//1 37//1 38//1 36//1
f 39//1 41//1 42//1 40//1
f 43//1 45//1 46//1 44//1
f 47//1 49//1 50//1 48//1
f 41//1 47//1 48//1 42//1
f 45//1 51//1 52//1 46//1
f 40//1 42//1 45//1 43//1
f 42//1 48//1 51//1 45//1
f 55//1 57//1 58//1 56//1
f 57//1 59//1 60//1 58//1
f 28//1 39//1 40//1 29//1
f 32//1 43//1 44//1 33//1
f 29//1 40//1 43//1 32//1
f 37//1 55//1 56//1 38//1
f 31//1 33//1 37//1 35//1
f 25//1 31//1 35//1 34//1
f 44//1 46//1 57//1 55//1
f 46//1 52//1 59//1 57//1
f 33//1 44//1 55//1 37//1
f 69//2 71//2 70//2 68//2
f 65//2 69//2 68//2 64//2
f 68//2 70//2 67//2 66//2
f 75//2 77//2 76//2 74//2
f 82//2 84//2 83//2 81//2
f 77//2 82//2 81//2 76//2
f 74//2 76//2 73//2 72//2
f 81//2 83//2 80//2 78//2
f 76//2 81//2 78//2 73//2
f 71//2 75//2 74//2 70//2
f 70//2 74//2 72//2 67//2
f 90//2 92//2 91//2 89//2
f 94//2 96//2 95//2 93//2
f 86//2 90//2 89//2 85//2
f 88//2 94//2 93//2 87//2
f 93//2 95//2 92//2 90//2
f 87//2 93//2 90//2 86//2
f 99//2 101//2 100//2 98//2
f 103//2 105//2 104//2 102//2
f 107//2 109//2 108//2 106//2
f 111//2 113//2 112//2 110//2
f 105//2 111//2 110//2 104//2
f 109//2 115//2 114//2 108//2
f 106//2 108//2 105//2 103//2
f 108//2 114//2 111//2 105//2
f 119//2 121//2 120//2 118//2
f 121//2 123//2 122//2 120//2
f 92//2 103//2 102//2 91//2
f 96//2 107//2 106//2 95//2
f 95//2 106//2 103//2 92//2
f 101//2 119//2 118//2 100//2
f 98//2 100//2 96//2 94//2
f 97//2 98//2 94//2 88//2
f 118//2 120//2 109//2 107//2
f 120//2 122//2 115//2 109//2
f 100//2 118//2 107//2 96//2
f 129//1 131//1 132//1 130//1
f 138//1 144//1 145//1 139//1
f 141//1 143//1 146//1 144//1
f 148//1 150//1 151//1 149//1
f 152//1 154//1 155//1 153//1
f 150//1 156//1 157//1 151//1
f 154//1 158//1 159//1 155//1
f 149//1 151//1 154//1 152//1
f 151//1 157//1 158//1 154//1
f 131//1 152//1 153//1 132//1
f 142//1 160//1 161//1 143//1
f 127//1 128//1 135//1 133//1
f 128//1 130//1 140//1 135//1
f 132//1 153//1 160//1 142//1
f 164//1 166//1 167//1 165//1
f 168//1 170//1 171//1 169//1
f 172//1 174//1 175//1 173//1
f 176//1 178//1 179//1 177//1
f 166//1 172//1 173//1 167//1
f 170//1 176//1 177//1 171//1
f 165//1 167//1 170//1 168//1
f 173//1 175//1 178//1 176//1
f 167//1 173//1 176//1 170//1
f 180//1 182//1 183//1 181//1
f 184//1 186//1 187//1 185//1
f 188//1 190//1 191//1 189//1
f 192//1 194//1 195//1 193//1
f 182//1 188//1 189//1 183//1
f 186//1 192//1 193//1 187//1
f 181//1 183//1 186//1 184//1
f 189//1 191//1 194//1 192//1
f 183//1 189//1 192//1 186//1
f 196//1 198//1 199//1 197//1
f 200//1 202//1 203//1 201//1
f 202//1 205//1 206//1 203//1
f 197//1 199//1 202//1 200//1
f 199//1 204//1 205//1 202//1
f 207//1 209//1 210//1 208//1
f 211//1 213//1 214//1 212//1
f 209//1 215//1 216//1 210//1
f 208//1 210//1 213//1 211//1
f 210//1 216//1 217//1 213//1
f 174//1 196//1 197//1 175//1
f 178//1 200//1 201//1 179//1
f 175//1 197//1 200//1 178//1
f 190//1 207//1 208//1 191//1
f 194//1 211//1 212//1 195//1
f 191//1 208//1 211//1 194//1
f 169//1 171//1 182//1 180//1
f 177//1 179//1 190//1 188//1
f 171//1 177//1 188//1 182//1
f 201//1 203//1 209//1 207//1
f 203//1 206//1 215//1 209//1
f 179//1 201//1 207//1 190//1
f 221//2 223//2 222//2 220//2
f 230//2 236//2 235//2 229//2
f 235//2 237//2 234//2 232//2
f 240//2 242//2 241//2 239//2
f 244//2 246//2 245//2 243//2
f 242//2 248//2 247//2 241//2
f 246//2 250//2 249//2 245//2
f 243//2 245//2 242//2 240//2
f 245//2 249//2 248//2 242//2
f 223//2 244//2 243//2 222//2
f 234//2 252//2 251//2 233//2
f 224//2 226//2 219//2 218//2
f 226//2 231//2 221//2 219//2
f 233//2 251//2 244//2 223//2
f 256//2 258//2 257//2 255//2
f 260//2 262//2 261//2 259//2
f 264//2 266//2 265//2 263//2
f 268//2 270//2 269//2 267//2
f 258//2 264//2 263//2 257//2
f 262//2 268//2 267//2 261//2
f 259//2 261//2 258//2 256//2
f 267//2 269//2 266//2 264//2
f 261//2 267//2 264//2 258//2
f 272//2 274//2 273//2 271//2
f 276//2 278//2 277//2 275//2
f 280//2 282//2 281//2 279//2
f 284//2 286//2 285//2 283//2
f 274//2 280//2 279//2 273//2
f 278//2 284//2 283//2 277//2
f 275//2 277//2 274//2 272//2
f 283//2 285//2 282//2 280//2
f 277//2 283//2 280//2 274//2
f 288//2 290//2 289//2 287//2
f 292//2 294//2 293//2 291//2
f 294//2 297//2 296//2 293//2
f 291//2 293//2 290//2 288//2
f 293//2 296//2 295//2 290//2
f 299//2 301//2 300//2 298//2
f 303//2 305//2 304//2 302//2
f 301//2 307//2 306//2 300//2
f 302//2 304//2 301//2 299//2
f 304//2 308//2 307//2 301//2
f 266//2 288//2 287//2 265//2
f 270//2 292//2 291//2 269//2
f 269//2 291//2 288//2 266//2
f 282//2 299//2 298//2 281//2
f 286//2 303//2 302//2 285//2
f 285//2 302//2 299//2 282//2
f 271//2 273//2 262//2 260//2
f 279//2 281//2 270//2 268//2
f 273//2 279//2 268//2 262//2
f 298//2 300//2 294//2 292//2
f 300//2 306//2 297//2 294//2
f 281//2 298//2 292//2 270//2
f 16//1 133//1 134//1 17//1
f 20//1 136//1 137//1 21//1
f 53//1 168//1 169//1 54//1
f 50//1 165//1 168//1 53//1
f 61//1 180//1 181//1 62//1
f 62//1 181//1 184//1 63//1
f 54//1 169//1 180//1 61//1
f 80//2 225//2 224//2 79//2
f 84//2 228//2 227//2 83//2
f 117//2 260//2 259//2 116//2
f 116//2 259//2 256//2 113//2
f 125//2 272//2 271//2 124//2
f 126//2 275//2 272//2 125//2
f 124//2 271//2 260//2 117//2
f 3//3 66//3 67//3 4//3
f 1//4 2//4 65//4 64//4
f 3//4 5//4 68//4 66//4
f 1//3 64//3 68//3 5//3
f 9//3 72//3 73//3 10//3
f 16//4 17//4 80//4 79//4
f 15//3 78//3 80//3 17//3
f 80//5 83//5 20//5 17//5
f 10//3 73//3 78//3 15//3
f 4//3 67//3 72//3 9//3
f 127//3 218//3 219//3 128//3
f 129//4 130//4 221//4 220//4
f 129//3 220//3 222//3 131//3
f 132//6 223//6 221//6 130//6
f 128//3 219//3 221//3 130//3
f 148//4 149//4 240//4 239//4
f 148//3 239//3 241//3 150//3
f 247//5 248//5 157//5 156//5
f 155//6 246//6 244//6 153//6
f 249//5 250//5 159//5 158//5
f 149//4 152//4 243//4 240//4
f 248//5 249//5 158//5 157//5
f 150//3 241//3 247//3 156//3
f 159//6 250//6 246//6 155//6
f 224//5 225//5 134//5 133//5
f 135//6 226//6 224//6 133//6
f 142//4 143//4 234//4 233//4
f 141//3 232//3 234//3 143//3
f 227//5 228//5 137//5 136//5
f 138//4 139//4 230//4 229//4
f 137//3 228//3 230//3 139//3
f 235//5 236//5 145//5 144//5
f 146//6 237//6 235//6 144//6
f 145//3 236//3 238//3 147//3
f 141//4 144//4 235//4 232//4
f 234//5 237//5 146//5 143//5
f 140//6 231//6 226//6 135//6
f 138//3 229//3 235//3 144//3
f 251//5 252//5 161//5 160//5
f 162//3 253//3 254//3 163//3
f 127//4 133//4 224//4 218//4
f 221//5 231//5 140//5 130//5
f 132//4 142//4 233//4 223//4
f 244//5 251//5 160//5 153//5
f 131//3 222//3 243//3 152//3
f 161//6 252//6 234//6 143//6
f 147//3 238//3 253//3 162//3
f 22//4 23//4 86//4 85//4
f 24//4 25//4 88//4 87//4
f 23//4 24//4 87//4 86//4
f 112//5 113//5 50//5 49//5
f 50//6 113//6 111//6 48//6
f 114//5 115//5 52//5 51//5
f 53//4 54//4 117//4 116//4
f 111//5 114//5 51//5 48//5
f 50//4 53//4 116//4 113//4
f 35//4 36//4 99//4 98//4
f 38//6 101//6 99//6 36//6
f 35//6 98//6 97//6 34//6
f 58//6 121//6 119//6 56//6
f 122//5 123//5 60//5 59//5
f 61//4 62//4 125//4 124//4
f 62//4 63//4 126//4 125//4
f 60//6 123//6 121//6 58//6
f 25//4 34//4 97//4 88//4
f 115//5 122//5 59//5 52//5
f 54//4 61//4 124//4 117//4
f 56//6 119//6 101//6 38//6
f 164//4 165//4 256//4 255//4
f 289//5 290//5 199//5 198//5
f 296//5 297//5 206//5 205//5
f 295//5 296//5 205//5 204//5
f 199//3 290//3 295//3 204//3
f 184//4 185//4 276//4 275//4
f 187//6 278//6 276//6 185//6
f 195//6 286//6 284//6 193//6
f 193//6 284//6 278//6 187//6
f 306//5 307//5 216//5 215//5
f 304//5 305//5 214//5 213//5
f 214//6 305//6 303//6 212//6
f 307//5 308//5 217//5 216//5
f 217//6 308//6 304//6 213//6
f 297//5 306//5 215//5 206//5
f 212//6 303//6 286//6 195//6
f 6//1 8//1 28//1 26//1
f 2//1 6//1 26//1 22//1
f 12//1 14//1 41//1 39//1
f 19//1 21//1 49//1 47//1
f 14//1 19//1 47//1 41//1
f 8//1 12//1 39//1 28//1
f 89//2 91//2 71//2 69//2
f 85//2 89//2 69//2 65//2
f 102//2 104//2 77//2 75//2
f 110//2 112//2 84//2 82//2
f 104//2 110//2 82//2 77//2
f 91//2 102//2 75//2 71//2
f 137//1 139//1 166//1 164//1
f 145//1 147//1 174//1 172//1
f 139//1 145//1 172//1 166//1
f 162//1 163//1 198//1 196//1
f 147//1 162//1 196//1 174//1
f 255//2 257//2 230//2 228//2
f 263//2 265//2 238//2 236//2
f 257//2 263//2 236//2 230//2
f 287//2 289//2 254//2 253//2
f 265//2 287//2 253//2 238//2
f 2//4 22//4 85//4 65//4
f 84//5 112//5 49//5 21//5
f 137//4 164//4 255//4 228//4
f 254//5 289//5 198//5 163//5
f 16//3 79//3 224//3 133//3
f 134//6 225//6 80//6 17//6
f 20//3 83//3 227//3 136//3
f 137//6 228//6 84//6 21//6
f 50//3 113//3 256//3 165//3
f 184//6 275//6 126//6 63//6
