# Blender 4.0.2
# www.blender.org
mtllib Manzana.mtl
o Manzana
v -0.000781 0.011568 0.008235
v -0.000781 0.010006 0.008235
v -0.000781 0.011568 0.006674
v -0.000781 0.010006 0.006674
v -0.000781 0.008445 0.008235
v -0.000781 0.006883 0.008235
v -0.000781 0.008445 0.006674
v -0.000781 0.006883 0.006674
v -0.000781 0.005322 0.009796
v -0.000781 0.003761 0.009796
v -0.000781 0.002199 0.009796
v -0.000781 0.000638 0.009796
v -0.000781 0.005322 0.008235
v -0.000781 0.003761 0.008235
v -0.000781 0.005322 0.006674
v -0.000781 0.003761 0.006674
v -0.000781 0.002199 0.008235
v -0.000781 0.000638 0.008235
v -0.000781 0.002199 0.006674
v -0.000781 0.000638 0.006674
v -0.000781 0.011568 0.005112
v -0.000781 0.010006 0.005112
v -0.000781 0.011568 0.003551
v -0.000781 0.010006 0.003551
v -0.000781 0.008445 0.005112
v -0.000781 0.006883 0.005112
v -0.000781 0.008445 0.003551
v -0.000781 0.006883 0.003551
v -0.000781 0.011568 0.001989
v -0.000781 0.010006 0.001989
v -0.000781 0.011568 0.000428
v -0.000781 0.010006 0.000428
v -0.000781 0.008445 0.001989
v -0.000781 0.006883 0.001989
v -0.000781 0.008445 0.000428
v -0.000781 0.006883 0.000428
v -0.000781 0.005322 0.005112
v -0.000781 0.003761 0.005112
v -0.000781 0.005322 0.003551
v -0.000781 0.003761 0.003551
v -0.000781 0.002199 0.005112
v -0.000781 0.000638 0.005112
v -0.000781 0.002199 0.003551
v -0.000781 0.000638 0.003551
v -0.000781 0.005322 0.001989
v -0.000781 0.003761 0.001989
v -0.000781 0.005322 0.000428
v -0.000781 0.003761 0.000428
v -0.000781 0.002199 0.001989
v -0.000781 0.000638 0.001989
v -0.000781 0.002199 0.000428
v -0.000781 0.000638 0.000428
v -0.000781 -0.000923 0.009796
v -0.000781 -0.002485 0.009796
v -0.000781 -0.004046 0.009796
v -0.000781 -0.005607 0.009796
v -0.000781 -0.000923 0.008235
v -0.000781 -0.002485 0.008235
v -0.000781 -0.000923 0.006674
v -0.000781 -0.002485 0.006674
v -0.000781 -0.004046 0.008235
v -0.000781 -0.005607 0.008235
v -0.000781 -0.004046 0.006674
v -0.000781 -0.005607 0.006674
v -0.000781 -0.007169 0.008235
v -0.000781 -0.008730 0.008235
v -0.000781 -0.007169 0.006674
v -0.000781 -0.008730 0.006674
v -0.000781 -0.000923 0.005112
v -0.000781 -0.002485 0.005112
v -0.000781 -0.000923 0.003551
v -0.000781 -0.002485 0.003551
v -0.000781 -0.004046 0.005112
v -0.000781 -0.005607 0.005112
v -0.000781 -0.004046 0.003551
v -0.000781 -0.005607 0.003551
v -0.000781 -0.000923 0.001989
v -0.000781 -0.002485 0.001989
v -0.000781 -0.000923 0.000428
v -0.000781 -0.002485 0.000428
v -0.000781 -0.004046 0.001989
v -0.000781 -0.005607 0.001989
v -0.000781 -0.004046 0.000428
v -0.000781 -0.005607 0.000428
v -0.000781 -0.007169 0.005112
v -0.000781 -0.008730 0.005112
v -0.000781 -0.007169 0.003551
v -0.000781 -0.008730 0.003551
v -0.000781 -0.010292 0.005112
v -0.000781 -0.011853 0.005112
v -0.000781 -0.010292 0.003551
v -0.000781 -0.011853 0.003551
v -0.000781 -0.007169 0.001989
v -0.000781 -0.008730 0.001989
v -0.000781 -0.007169 0.000428
v -0.000781 -0.008730 0.000428
v -0.000781 -0.010292 0.001989
v -0.000781 -0.011853 0.001989
v 0.000781 0.011568 0.008235
v 0.000781 0.010006 0.008235
v 0.000781 0.011568 0.006674
v 0.000781 0.010006 0.006674
v 0.000781 0.008445 0.008235
v 0.000781 0.006883 0.008235
v 0.000781 0.008445 0.006674
v 0.000781 0.006883 0.006674
v 0.000781 0.005322 0.009796
v 0.000781 0.003761 0.009796
v 0.000781 0.002199 0.009796
v 0.000781 0.000638 0.009796
v 0.000781 0.005322 0.008235
v 0.000781 0.003761 0.008235
v 0.000781 0.005322 0.006674
v 0.000781 0.003761 0.006674
v 0.000781 0.002199 0.008235
v 0.000781 0.000638 0.008235
v 0.000781 0.002199 0.006674
v 0.000781 0.000638 0.006674
v 0.000781 0.011568 0.005112
v 0.000781 0.010006 0.005112
v 0.000781 0.011568 0.003551
v 0.000781 0.010006 0.003551
v 0.000781 0.008445 0.005112
v 0.000781 0.006883 0.005112
v 0.000781 0.008445 0.003551
v 0.000781 0.006883 0.003551
v 0.000781 0.011568 0.001989
v 0.000781 0.010006 0.001989
v 0.000781 0.011568 0.000428
v 0.000781 0.010006 0.000428
v 0.000781 0.008445 0.001989
v 0.000781 0.006883 0.001989
v 0.000781 0.008445 0.000428
v 0.000781 0.006883 0.000428
v 0.000781 0.005322 0.005112
v 0.000781 0.003761 0.005112
v 0.000781 0.005322 0.003551
v 0.000781 0.003761 0.003551
v 0.000781 0.002199 0.005112
v 0.000781 0.000638 0.005112
v 0.000781 0.002199 0.003551
v 0.000781 0.000638 0.003551
v 0.000781 0.005322 0.001989
v 0.000781 0.003761 0.001989
v 0.000781 0.005322 0.000428
v 0.000781 0.003761 0.000428
v 0.000781 0.002199 0.001989
v 0.000781 0.000638 0.001989
v 0.000781 0.002199 0.000428
v 0.000781 0.000638 0.000428
v 0.000781 -0.000923 0.009796
v 0.000781 -0.002485 0.009796
v 0.000781 -0.004046 0.009796
v 0.000781 -0.005607 0.009796
v 0.000781 -0.000923 0.008235
v 0.000781 -0.002485 0.008235
v 0.000781 -0.000923 0.006674
v 0.000781 -0.002485 0.006674
v 0.000781 -0.004046 0.008235
v 0.000781 -0.005607 0.008235
v 0.000781 -0.004046 0.006674
v 0.000781 -0.005607 0.006674
v 0.000781 -0.007169 0.008235
v 0.000781 -0.008730 0.008235
v 0.000781 -0.007169 0.006674
v 0.000781 -0.008730 0.006674
v 0.000781 -0.000923 0.005112
v 0.000781 -0.002485 0.005112
v 0.000781 -0.000923 0.003551
v 0.000781 -0.002485 0.003551
v 0.000781 -0.004046 0.005112
v 0.000781 -0.005607 0.005112
v 0.000781 -0.004046 0.003551
v 0.000781 -0.005607 0.003551
v 0.000781 -0.000923 0.001989
v 0.000781 -0.002485 0.001989
v 0.000781 -0.000923 0.000428
v 0.000781 -0.002485 0.000428
v 0.000781 -0.004046 0.001989
v 0.000781 -0.005607 0.001989
v 0.000781 -0.004046 0.000428
v 0.000781 -0.005607 0.000428
v 0.000781 -0.007169 0.005112
v 0.000781 -0.008730 0.005112
v 0.000781 -0.007169 0.003551
v 0.000781 -0.008730 0.003551
v 0.000781 -0.010292 0.005112
v 0.000781 -0.011853 0.005112
v 0.000781 -0.010292 0.003551
v 0.000781 -0.011853 0.003551
v 0.000781 -0.007169 0.001989
v 0.000781 -0.008730 0.001989
v 0.000781 -0.007169 0.000428
v 0.000781 -0.008730 0.000428
v 0.000781 -0.010292 0.001989
v 0.000781 -0.011853 0.001989
v -0.000781 0.011568 -0.001133
v -0.000781 0.010006 -0.001133
v -0.000781 0.011568 -0.002695
v -0.000781 0.010006 -0.002695
v -0.000781 0.008445 -0.001133
v -0.000781 0.006883 -0.001133
v -0.000781 0.008445 -0.002695
v -0.000781 0.006883 -0.002695
v -0.000781 0.008445 -0.004256
v -0.000781 0.006883 -0.004256
v -0.000781 0.008445 -0.005817
v -0.000781 0.006883 -0.005817
v -0.000781 0.005322 -0.001133
v -0.000781 0.003761 -0.001133
v -0.000781 0.005322 -0.002695
v -0.000781 0.003761 -0.002695
v -0.000781 0.002199 -0.001133
v -0.000781 0.000638 -0.001133
v -0.000781 0.002199 -0.002695
v -0.000781 0.000638 -0.002695
v -0.000781 0.005322 -0.004256
v -0.000781 0.003761 -0.004256
v -0.000781 0.005322 -0.005817
v -0.000781 0.003761 -0.005817
v -0.000781 0.002199 -0.004256
v -0.000781 0.000638 -0.004256
v -0.000781 0.002199 -0.005817
v -0.000781 0.000638 -0.005817
v -0.000781 0.006883 -0.007379
v -0.000781 0.006883 -0.008940
v -0.000781 0.005322 -0.007379
v -0.000781 0.003761 -0.007379
v -0.000781 0.005322 -0.008940
v -0.000781 0.003761 -0.008940
v -0.000781 0.002199 -0.007379
v -0.000781 0.000638 -0.007379
v -0.000781 0.002199 -0.008940
v -0.000781 0.000638 -0.008940
v -0.000781 0.005322 -0.010501
v -0.000781 0.003761 -0.010501
v -0.000781 0.002199 -0.010501
v -0.000781 0.000638 -0.010501
v -0.000781 -0.000923 -0.001133
v -0.000781 -0.002485 -0.001133
v -0.000781 -0.000923 -0.002695
v -0.000781 -0.002485 -0.002695
v -0.000781 -0.004046 -0.001133
v -0.000781 -0.005607 -0.001133
v -0.000781 -0.004046 -0.002695
v -0.000781 -0.005607 -0.002695
v -0.000781 -0.000923 -0.004256
v -0.000781 -0.002485 -0.004256
v -0.000781 -0.000923 -0.005817
v -0.000781 -0.002485 -0.005817
v -0.000781 -0.004046 -0.004256
v -0.000781 -0.005607 -0.004256
v -0.000781 -0.004046 -0.005817
v -0.000781 -0.005607 -0.005817
v -0.000781 -0.007169 -0.001133
v -0.000781 -0.008730 -0.001133
v -0.000781 -0.007169 -0.002695
v -0.000781 -0.008730 -0.002695
v -0.000781 -0.010292 -0.002695
v -0.000781 -0.011853 -0.002695
v -0.000781 -0.007169 -0.004256
v -0.000781 -0.008730 -0.004256
v -0.000781 -0.007169 -0.005817
v -0.000781 -0.008730 -0.005817
v -0.000781 -0.010292 -0.004256
v -0.000781 -0.011853 -0.004256
v -0.000781 -0.010292 -0.005817
v -0.000781 -0.011853 -0.005817
v -0.000781 -0.000923 -0.007379
v -0.000781 -0.002485 -0.007379
v -0.000781 -0.000923 -0.008940
v -0.000781 -0.002485 -0.008940
v -0.000781 -0.004046 -0.007379
v -0.000781 -0.005607 -0.007379
v -0.000781 -0.004046 -0.008940
v -0.000781 -0.005607 -0.008940
v -0.000781 -0.000923 -0.010501
v -0.000781 -0.002485 -0.010501
v -0.000781 -0.004046 -0.010501
v -0.000781 -0.005607 -0.010501
v -0.000781 -0.007169 -0.007379
v -0.000781 -0.008730 -0.007379
v -0.000781 -0.007169 -0.008940
v -0.000781 -0.008730 -0.008940
v 0.000781 0.011568 -0.001133
v 0.000781 0.010006 -0.001133
v 0.000781 0.011568 -0.002695
v 0.000781 0.010006 -0.002695
v 0.000781 0.008445 -0.001133
v 0.000781 0.006883 -0.001133
v 0.000781 0.008445 -0.002695
v 0.000781 0.006883 -0.002695
v 0.000781 0.008445 -0.004256
v 0.000781 0.006883 -0.004256
v 0.000781 0.008445 -0.005817
v 0.000781 0.006883 -0.005817
v 0.000781 0.005322 -0.001133
v 0.000781 0.003761 -0.001133
v 0.000781 0.005322 -0.002695
v 0.000781 0.003761 -0.002695
v 0.000781 0.002199 -0.001133
v 0.000781 0.000638 -0.001133
v 0.000781 0.002199 -0.002695
v 0.000781 0.000638 -0.002695
v 0.000781 0.005322 -0.004256
v 0.000781 0.003761 -0.004256
v 0.000781 0.005322 -0.005817
v 0.000781 0.003761 -0.005817
v 0.000781 0.002199 -0.004256
v 0.000781 0.000638 -0.004256
v 0.000781 0.002199 -0.005817
v 0.000781 0.000638 -0.005817
v 0.000781 0.006883 -0.007379
v 0.000781 0.006883 -0.008940
v 0.000781 0.005322 -0.007379
v 0.000781 0.003761 -0.007379
v 0.000781 0.005322 -0.008940
v 0.000781 0.003761 -0.008940
v 0.000781 0.002199 -0.007379
v 0.000781 0.000638 -0.007379
v 0.000781 0.002199 -0.008940
v 0.000781 0.000638 -0.008940
v 0.000781 0.005322 -0.010501
v 0.000781 0.003761 -0.010501
v 0.000781 0.002199 -0.010501
v 0.000781 0.000638 -0.010501
v 0.000781 -0.000923 -0.001133
v 0.000781 -0.002485 -0.001133
v 0.000781 -0.000923 -0.002695
v 0.000781 -0.002485 -0.002695
v 0.000781 -0.004046 -0.001133
v 0.000781 -0.005607 -0.001133
v 0.000781 -0.004046 -0.002695
v 0.000781 -0.005607 -0.002695
v 0.000781 -0.000923 -0.004256
v 0.000781 -0.002485 -0.004256
v 0.000781 -0.000923 -0.005817
v 0.000781 -0.002485 -0.005817
v 0.000781 -0.004046 -0.004256
v 0.000781 -0.005607 -0.004256
v 0.000781 -0.004046 -0.005817
v 0.000781 -0.005607 -0.005817
v 0.000781 -0.007169 -0.001133
v 0.000781 -0.008730 -0.001133
v 0.000781 -0.007169 -0.002695
v 0.000781 -0.008730 -0.002695
v 0.000781 -0.010292 -0.002695
v 0.000781 -0.011853 -0.002695
v 0.000781 -0.007169 -0.004256
v 0.000781 -0.008730 -0.004256
v 0.000781 -0.007169 -0.005817
v 0.000781 -0.008730 -0.005817
v 0.000781 -0.010292 -0.004256
v 0.000781 -0.011853 -0.004256
v 0.000781 -0.010292 -0.005817
v 0.000781 -0.011853 -0.005817
v 0.000781 -0.000923 -0.007379
v 0.000781 -0.002485 -0.007379
v 0.000781 -0.000923 -0.008940
v 0.000781 -0.002485 -0.008940
v 0.000781 -0.004046 -0.007379
v 0.000781 -0.005607 -0.007379
v 0.000781 -0.004046 -0.008940
v 0.000781 -0.005607 -0.008940
v 0.000781 -0.000923 -0.010501
v 0.000781 -0.002485 -0.010501
v 0.000781 -0.004046 -0.010501
v 0.000781 -0.005607 -0.010501
v 0.000781 -0.007169 -0.007379
v 0.000781 -0.008730 -0.007379
v 0.000781 -0.007169 -0.008940
v 0.000781 -0.008730 -0.008940
vn -1.0000 -0.0000 -0.0000
vn 1.0000 -0.0000 -0.0000
vn -0.0000 -0.0000 1.0000
vn -0.0000 1.0000 -0.0000
vn -0.0000 -1.0000 -0.0000
vn -0.0000 -0.0000 -1.0000
s 0
usemtl palette
f 1//1 3//1 4//1 2//1
f 2//1 4//1 7//1 5//1
f 13//1 15//1 16//1 14//1
f 17//1 19//1 20//1 18//1
f 9//1 13//1 14//1 10//1
f 11//1 17//1 18//1 12//1
f 14//1 16//1 19//1 17//1
f 10//1 14//1 17//1 11//1
f 21//1 23//1 24//1 22//1
f 25//1 27//1 28//1 26//1
f 33//1 35//1 36//1 34//1
f 23//1 29//1 30//1 24//1
f 27//1 33//1 34//1 28//1
f 22//1 24//1 27//1 25//1
f 24//1 30//1 33//1 27//1
f 37//1 39//1 40//1 38//1
f 41//1 43//1 44//1 42//1
f 45//1 47//1 48//1 46//1
f 49//1 51//1 52//1 50//1
f 39//1 45//1 46//1 40//1
f 43//1 49//1 50//1 44//1
f 38//1 40//1 43//1 41//1
f 46//1 48//1 51//1 49//1
f 40//1 46//1 49//1 43//1
f 3//1 21//1 22//1 4//1
f 4//1 22//1 25//1 7//1
f 15//1 37//1 38//1 16//1
f 19//1 41//1 42//1 20//1
f 16//1 38//1 41//1 19//1
f 6//1 8//1 15//1 13//1
f 26//1 28//1 39//1 37//1
f 34//1 36//1 47//1 45//1
f 28//1 34//1 45//1 39//1
f 8//1 26//1 37//1 15//1
f 57//1 59//1 60//1 58//1
f 61//1 63//1 64//1 62//1
f 53//1 57//1 58//1 54//1
f 55//1 61//1 62//1 56//1
f 58//1 60//1 63//1 61//1
f 54//1 58//1 61//1 55//1
f 65//1 67//1 68//1 66//1
f 69//1 71//1 72//1 70//1
f 73//1 75//1 76//1 74//1
f 77//1 79//1 80//1 78//1
f 81//1 83//1 84//1 82//1
f 71//1 77//1 78//1 72//1
f 75//1 81//1 82//1 76//1
f 70//1 72//1 75//1 73//1
f 78//1 80//1 83//1 81//1
f 72//1 78//1 81//1 75//1
f 85//1 87//1 88//1 86//1
f 89//1 91//1 92//1 90//1
f 93//1 95//1 96//1 94//1
f 87//1 93//1 94//1 88//1
f 91//1 97//1 98//1 92//1
f 86//1 88//1 91//1 89//1
f 88//1 94//1 97//1 91//1
f 59//1 69//1 70//1 60//1
f 63//1 73//1 74//1 64//1
f 60//1 70//1 73//1 63//1
f 67//1 85//1 86//1 68//1
f 62//1 64//1 67//1 65//1
f 74//1 76//1 87//1 85//1
f 82//1 84//1 95//1 93//1
f 76//1 82//1 93//1 87//1
f 64//1 74//1 85//1 67//1
f 100//2 102//2 101//2 99//2
f 103//2 105//2 102//2 100//2
f 112//2 114//2 113//2 111//2
f 116//2 118//2 117//2 115//2
f 108//2 112//2 111//2 107//2
f 110//2 116//2 115//2 109//2
f 115//2 117//2 114//2 112//2
f 109//2 115//2 112//2 108//2
f 120//2 122//2 121//2 119//2
f 124//2 126//2 125//2 123//2
f 132//2 134//2 133//2 131//2
f 122//2 128//2 127//2 121//2
f 126//2 132//2 131//2 125//2
f 123//2 125//2 122//2 120//2
f 125//2 131//2 128//2 122//2
f 136//2 138//2 137//2 135//2
f 140//2 142//2 141//2 139//2
f 144//2 146//2 145//2 143//2
f 148//2 150//2 149//2 147//2
f 138//2 144//2 143//2 137//2
f 142//2 148//2 147//2 141//2
f 139//2 141//2 138//2 136//2
f 147//2 149//2 146//2 144//2
f 141//2 147//2 144//2 138//2
f 102//2 120//2 119//2 101//2
f 105//2 123//2 120//2 102//2
f 114//2 136//2 135//2 113//2
f 118//2 140//2 139//2 117//2
f 117//2 139//2 136//2 114//2
f 111//2 113//2 106//2 104//2
f 135//2 137//2 126//2 124//2
f 143//2 145//2 134//2 132//2
f 137//2 143//2 132//2 126//2
f 113//2 135//2 124//2 106//2
f 156//2 158//2 157//2 155//2
f 160//2 162//2 161//2 159//2
f 152//2 156//2 155//2 151//2
f 154//2 160//2 159//2 153//2
f 159//2 161//2 158//2 156//2
f 153//2 159//2 156//2 152//2
f 164//2 166//2 165//2 163//2
f 168//2 170//2 169//2 167//2
f 172//2 174//2 173//2 171//2
f 176//2 178//2 177//2 175//2
f 180//2 182//2 181//2 179//2
f 170//2 176//2 175//2 169//2
f 174//2 180//2 179//2 173//2
f 171//2 173//2 170//2 168//2
f 179//2 181//2 178//2 176//2
f 173//2 179//2 176//2 170//2
f 184//2 186//2 185//2 183//2
f 188//2 190//2 189//2 187//2
f 192//2 194//2 193//2 191//2
f 186//2 192//2 191//2 185//2
f 190//2 196//2 195//2 189//2
f 187//2 189//2 186//2 184//2
f 189//2 195//2 192//2 186//2
f 158//2 168//2 167//2 157//2
f 162//2 172//2 171//2 161//2
f 161//2 171//2 168//2 158//2
f 166//2 184//2 183//2 165//2
f 163//2 165//2 162//2 160//2
f 183//2 185//2 174//2 172//2
f 191//2 193//2 182//2 180//2
f 185//2 191//2 180//2 174//2
f 165//2 183//2 172//2 162//2
f 197//1 199//1 200//1 198//1
f 201//1 203//1 204//1 202//1
f 205//1 207//1 208//1 206//1
f 203//1 205//1 206//1 204//1
f 198//1 200//1 203//1 201//1
f 209//1 211//1 212//1 210//1
f 213//1 215//1 216//1 214//1
f 217//1 219//1 220//1 218//1
f 221//1 223//1 224//1 222//1
f 211//1 217//1 218//1 212//1
f 215//1 221//1 222//1 216//1
f 210//1 212//1 215//1 213//1
f 218//1 220//1 223//1 221//1
f 212//1 218//1 221//1 215//1
f 227//1 229//1 230//1 228//1
f 231//1 233//1 234//1 232//1
f 229//1 235//1 236//1 230//1
f 233//1 237//1 238//1 234//1
f 228//1 230//1 233//1 231//1
f 230//1 236//1 237//1 233//1
f 219//1 227//1 228//1 220//1
f 223//1 231//1 232//1 224//1
f 220//1 228//1 231//1 223//1
f 202//1 204//1 211//1 209//1
f 206//1 208//1 219//1 217//1
f 204//1 206//1 217//1 211//1
f 225//1 226//1 229//1 227//1
f 208//1 225//1 227//1 219//1
f 239//1 241//1 242//1 240//1
f 243//1 245//1 246//1 244//1
f 247//1 249//1 250//1 248//1
f 251//1 253//1 254//1 252//1
f 241//1 247//1 248//1 242//1
f 245//1 251//1 252//1 246//1
f 240//1 242//1 245//1 243//1
f 248//1 250//1 253//1 251//1
f 242//1 248//1 251//1 245//1
f 255//1 257//1 258//1 256//1
f 261//1 263//1 264//1 262//1
f 265//1 267//1 268//1 266//1
f 257//1 261//1 262//1 258//1
f 259//1 265//1 266//1 260//1
f 262//1 264//1 267//1 265//1
f 258//1 262//1 265//1 259//1
f 269//1 271//1 272//1 270//1
f 273//1 275//1 276//1 274//1
f 271//1 277//1 278//1 272//1
f 275//1 279//1 280//1 276//1
f 270//1 272//1 275//1 273//1
f 272//1 278//1 279//1 275//1
f 281//1 283//1 284//1 282//1
f 249//1 269//1 270//1 250//1
f 253//1 273//1 274//1 254//1
f 250//1 270//1 273//1 253//1
f 263//1 281//1 282//1 264//1
f 244//1 246//1 257//1 255//1
f 252//1 254//1 263//1 261//1
f 246//1 252//1 261//1 257//1
f 274//1 276//1 283//1 281//1
f 254//1 274//1 281//1 263//1
f 286//2 288//2 287//2 285//2
f 290//2 292//2 291//2 289//2
f 294//2 296//2 295//2 293//2
f 292//2 294//2 293//2 291//2
f 289//2 291//2 288//2 286//2
f 298//2 300//2 299//2 297//2
f 302//2 304//2 303//2 301//2
f 306//2 308//2 307//2 305//2
f 310//2 312//2 311//2 309//2
f 300//2 306//2 305//2 299//2
f 304//2 310//2 309//2 303//2
f 301//2 303//2 300//2 298//2
f 309//2 311//2 308//2 306//2
f 303//2 309//2 306//2 300//2
f 316//2 318//2 317//2 315//2
f 320//2 322//2 321//2 319//2
f 318//2 324//2 323//2 317//2
f 322//2 326//2 325//2 321//2
f 319//2 321//2 318//2 316//2
f 321//2 325//2 324//2 318//2
f 308//2 316//2 315//2 307//2
f 312//2 320//2 319//2 311//2
f 311//2 319//2 316//2 308//2
f 297//2 299//2 292//2 290//2
f 305//2 307//2 296//2 294//2
f 299//2 305//2 294//2 292//2
f 315//2 317//2 314//2 313//2
f 307//2 315//2 313//2 296//2
f 328//2 330//2 329//2 327//2
f 332//2 334//2 333//2 331//2
f 336//2 338//2 337//2 335//2
f 340//2 342//2 341//2 339//2
f 330//2 336//2 335//2 329//2
f 334//2 340//2 339//2 333//2
f 331//2 333//2 330//2 328//2
f 339//2 341//2 338//2 336//2
f 333//2 339//2 336//2 330//2
f 344//2 346//2 345//2 343//2
f 350//2 352//2 351//2 349//2
f 354//2 356//2 355//2 353//2
f 346//2 350//2 349//2 345//2
f 348//2 354//2 353//2 347//2
f 353//2 355//2 352//2 350//2
f 347//2 353//2 350//2 346//2
f 358//2 360//2 359//2 357//2
f 362//2 364//2 363//2 361//2
f 360//2 366//2 365//2 359//2
f 364//2 368//2 367//2 363//2
f 361//2 363//2 360//2 358//2
f 363//2 367//2 366//2 360//2
f 370//2 372//2 371//2 369//2
f 338//2 358//2 357//2 337//2
f 342//2 362//2 361//2 341//2
f 341//2 361//2 358//2 338//2
f 352//2 370//2 369//2 351//2
f 343//2 345//2 334//2 332//2
f 349//2 351//2 342//2 340//2
f 345//2 349//2 340//2 334//2
f 369//2 371//2 364//2 362//2
f 351//2 369//2 362//2 342//2
f 31//1 197//1 198//1 32//1
f 35//1 201//1 202//1 36//1
f 32//1 198//1 201//1 35//1
f 47//1 209//1 210//1 48//1
f 51//1 213//1 214//1 52//1
f 48//1 210//1 213//1 51//1
f 36//1 202//1 209//1 47//1
f 79//1 239//1 240//1 80//1
f 83//1 243//1 244//1 84//1
f 80//1 240//1 243//1 83//1
f 95//1 255//1 256//1 96//1
f 84//1 244//1 255//1 95//1
f 130//2 286//2 285//2 129//2
f 134//2 290//2 289//2 133//2
f 133//2 289//2 286//2 130//2
f 146//2 298//2 297//2 145//2
f 150//2 302//2 301//2 149//2
f 149//2 301//2 298//2 146//2
f 145//2 297//2 290//2 134//2
f 178//2 328//2 327//2 177//2
f 182//2 332//2 331//2 181//2
f 181//2 331//2 328//2 178//2
f 194//2 344//2 343//2 193//2
f 193//2 343//2 332//2 182//2
f 1//3 2//3 100//3 99//3
f 1//4 99//4 101//4 3//4
f 7//5 105//5 103//5 5//5
f 6//4 104//4 106//4 8//4
f 2//3 5//3 103//3 100//3
f 21//4 119//4 121//4 23//4
f 127//6 128//6 30//6 29//6
f 31//3 32//3 130//3 129//3
f 25//3 26//3 124//3 123//3
f 33//4 131//4 133//4 35//4
f 128//6 131//6 33//6 30//6
f 32//3 35//3 133//3 130//3
f 23//4 121//4 127//4 29//4
f 9//3 10//3 108//3 107//3
f 11//3 12//3 110//3 109//3
f 10//3 11//3 109//3 108//3
f 9//4 107//4 111//4 13//4
f 6//3 13//3 111//3 104//3
f 3//4 101//4 119//4 21//4
f 25//5 123//5 105//5 7//5
f 8//4 106//4 124//4 26//4
f 287//6 288//6 200//6 199//6
f 197//4 285//4 287//4 199//4
f 295//6 296//6 208//6 207//6
f 205//4 293//4 295//4 207//4
f 288//6 291//6 203//6 200//6
f 203//4 291//4 293//4 205//4
f 225//4 313//4 314//4 226//4
f 323//6 324//6 236//6 235//6
f 325//6 326//6 238//6 237//6
f 324//6 325//6 237//6 236//6
f 229//4 317//4 323//4 235//4
f 314//6 317//6 229//6 226//6
f 208//4 296//4 313//4 225//4
f 53//3 54//3 152//3 151//3
f 55//3 56//3 154//3 153//3
f 54//3 55//3 153//3 152//3
f 62//5 160//5 154//5 56//5
f 65//3 66//3 164//3 163//3
f 68//5 166//5 164//5 66//5
f 96//5 194//5 192//5 94//5
f 89//3 90//3 188//3 187//3
f 92//5 190//5 188//5 90//5
f 195//6 196//6 98//6 97//6
f 86//3 89//3 187//3 184//3
f 192//6 195//6 97//6 94//6
f 98//5 196//5 190//5 92//5
f 62//3 65//3 163//3 160//3
f 86//5 184//5 166//5 68//5
f 365//6 366//6 278//6 277//6
f 367//6 368//6 280//6 279//6
f 366//6 367//6 279//6 278//6
f 280//5 368//5 364//5 276//5
f 258//5 346//5 344//5 256//5
f 259//3 260//3 348//3 347//3
f 355//6 356//6 268//6 267//6
f 268//5 356//5 354//5 266//5
f 258//3 259//3 347//3 346//3
f 352//6 355//6 267//6 264//6
f 266//5 354//5 348//5 260//5
f 371//6 372//6 284//6 283//6
f 284//5 372//5 370//5 282//5
f 364//6 371//6 283//6 276//6
f 282//5 370//5 352//5 264//5
f 18//1 20//1 59//1 57//1
f 12//1 18//1 57//1 53//1
f 42//1 44//1 71//1 69//1
f 50//1 52//1 79//1 77//1
f 44//1 50//1 77//1 71//1
f 20//1 42//1 69//1 59//1
f 155//2 157//2 118//2 116//2
f 151//2 155//2 116//2 110//2
f 167//2 169//2 142//2 140//2
f 175//2 177//2 150//2 148//2
f 169//2 175//2 148//2 142//2
f 157//2 167//2 140//2 118//2
f 214//1 216//1 241//1 239//1
f 222//1 224//1 249//1 247//1
f 216//1 222//1 247//1 241//1
f 232//1 234//1 271//1 269//1
f 234//1 238//1 277//1 271//1
f 224//1 232//1 269//1 249//1
f 327//2 329//2 304//2 302//2
f 335//2 337//2 312//2 310//2
f 329//2 335//2 310//2 304//2
f 357//2 359//2 322//2 320//2
f 359//2 365//2 326//2 322//2
f 337//2 357//2 320//2 312//2
f 12//3 53//3 151//3 110//3
f 326//6 365//6 277//6 238//6
f 52//1 214//1 239//1 79//1
f 177//2 327//2 302//2 150//2
f 31//4 129//4 285//4 197//4
f 256//5 344//5 194//5 96//5
