# Blender 4.0.2
# www.blender.org
mtllib Melon.mtl
o Melon
v -0.000998 0.002623 0.008844
v -0.000998 0.016596 0.006848
v -0.000998 0.014600 0.006848
v -0.000998 0.016596 0.004852
v -0.000998 0.014600 0.004852
v -0.000998 0.012604 0.004852
v -0.000998 0.010608 0.004852
v -0.000998 0.014600 0.002856
v -0.000998 0.014600 0.000860
v -0.000998 0.012604 0.002856
v -0.000998 0.010608 0.002856
v -0.000998 0.012604 0.000860
v -0.000998 0.010608 0.000860
v -0.000998 0.006615 0.006848
v -0.000998 0.006615 0.004852
v -0.000998 0.004619 0.006848
v -0.000998 0.002623 0.006848
v -0.000998 0.004619 0.004852
v -0.000998 0.002623 0.004852
v -0.000998 0.008611 0.002856
v -0.000998 0.006615 0.002856
v -0.000998 0.008611 0.000860
v -0.000998 0.006615 0.000860
v -0.000998 0.004619 0.002856
v -0.000998 0.002623 0.002856
v -0.000998 0.004619 0.000860
v -0.000998 0.002623 0.000860
v -0.000998 0.000627 0.012837
v -0.000998 -0.001370 0.012837
v -0.000998 -0.003366 0.012837
v -0.000998 -0.005362 0.012837
v -0.000998 0.000627 0.010841
v -0.000998 -0.001370 0.010841
v -0.000998 0.000627 0.008844
v -0.000998 -0.001370 0.008844
v -0.000998 -0.003366 0.010841
v -0.000998 -0.005362 0.010841
v -0.000998 -0.003366 0.008844
v -0.000998 -0.005362 0.008844
v -0.000998 -0.007358 0.008844
v -0.000998 0.000627 0.006848
v -0.000998 -0.001370 0.006848
v -0.000998 0.000627 0.004852
v -0.000998 -0.001370 0.004852
v -0.000998 -0.003366 0.006848
v -0.000998 -0.005362 0.006848
v -0.000998 -0.003366 0.004852
v -0.000998 -0.005362 0.004852
v -0.000998 0.000627 0.002856
v -0.000998 -0.001370 0.002856
v -0.000998 0.000627 0.000860
v -0.000998 -0.001370 0.000860
v -0.000998 -0.003366 0.002856
v -0.000998 -0.005362 0.002856
v -0.000998 -0.003366 0.000860
v -0.000998 -0.005362 0.000860
v -0.000998 -0.007358 0.006848
v -0.000998 -0.009354 0.006848
v -0.000998 -0.007358 0.004852
v -0.000998 -0.009354 0.004852
v -0.000998 -0.011351 0.006848
v -0.000998 -0.011351 0.004852
v -0.000998 -0.007358 0.002856
v -0.000998 -0.009354 0.002856
v -0.000998 -0.007358 0.000860
v -0.000998 -0.009354 0.000860
v -0.000998 -0.011351 0.002856
v -0.000998 -0.013347 0.002856
v -0.000998 -0.011351 0.000860
v -0.000998 -0.013347 0.000860
v 0.000998 0.002623 0.008844
v 0.000998 0.016596 0.006848
v 0.000998 0.014600 0.006848
v 0.000998 0.016596 0.004852
v 0.000998 0.014600 0.004852
v 0.000998 0.012604 0.004852
v 0.000998 0.010608 0.004852
v 0.000998 0.014600 0.002856
v 0.000998 0.014600 0.000860
v 0.000998 0.012604 0.002856
v 0.000998 0.010608 0.002856
v 0.000998 0.012604 0.000860
v 0.000998 0.010608 0.000860
v 0.000998 0.006615 0.006848
v 0.000998 0.006615 0.004852
v 0.000998 0.004619 0.006848
v 0.000998 0.002623 0.006848
v 0.000998 0.004619 0.004852
v 0.000998 0.002623 0.004852
v 0.000998 0.008611 0.002856
v 0.000998 0.006615 0.002856
v 0.000998 0.008611 0.000860
v 0.000998 0.006615 0.000860
v 0.000998 0.004619 0.002856
v 0.000998 0.002623 0.002856
v 0.000998 0.004619 0.000860
v 0.000998 0.002623 0.000860
v 0.000998 0.000627 0.012837
v 0.000998 -0.001370 0.012837
v 0.000998 -0.003366 0.012837
v 0.000998 -0.005362 0.012837
v 0.000998 0.000627 0.010841
v 0.000998 -0.001370 0.010841
v 0.000998 0.000627 0.008844
v 0.000998 -0.001370 0.008844
v 0.000998 -0.003366 0.010841
v 0.000998 -0.005362 0.010841
v 0.000998 -0.003366 0.008844
v 0.000998 -0.005362 0.008844
v 0.000998 -0.007358 0.008844
v 0.000998 0.000627 0.006848
v 0.000998 -0.001370 0.006848
v 0.000998 0.000627 0.004852
v 0.000998 -0.001370 0.004852
v 0.000998 -0.003366 0.006848
v 0.000998 -0.005362 0.006848
v 0.000998 -0.003366 0.004852
v 0.000998 -0.005362 0.004852
v 0.000998 0.000627 0.002856
v 0.000998 -0.001370 0.002856
v 0.000998 0.000627 0.000860
v 0.000998 -0.001370 0.000860
v 0.000998 -0.003366 0.002856
v 0.000998 -0.005362 0.002856
v 0.000998 -0.003366 0.000860
v 0.000998 -0.005362 0.000860
v 0.000998 -0.007358 0.006848
v 0.000998 -0.009354 0.006848
v 0.000998 -0.007358 0.004852
v 0.000998 -0.009354 0.004852
v 0.000998 -0.011351 0.006848
v 0.000998 -0.011351 0.004852
v 0.000998 -0.007358 0.002856
v 0.000998 -0.009354 0.002856
v 0.000998 -0.007358 0.000860
v 0.000998 -0.009354 0.000860
v 0.000998 -0.011351 0.002856
v 0.000998 -0.013347 0.002856
v 0.000998 -0.011351 0.000860
v 0.000998 -0.013347 0.000860
v -0.000998 0.014600 -0.001137
v -0.000998 0.014600 -0.003133
v -0.000998 0.012604 -0.001137
v -0.000998 0.010608 -0.001137
v -0.000998 0.012604 -0.003133
v -0.000998 0.010608 -0.003133
v -0.000998 0.014600 -0.005129
v -0.000998 0.012604 -0.005129
v -0.000998 0.010608 -0.005129
v -0.000998 0.008611 -0.001137
v -0.000998 0.006615 -0.001137
v -0.000998 0.008611 -0.003133
v -0.000998 0.006615 -0.003133
v -0.000998 0.004619 -0.001137
v -0.000998 0.002623 -0.001137
v -0.000998 0.004619 -0.003133
v -0.000998 0.002623 -0.003133
v -0.000998 0.006615 -0.005129
v -0.000998 0.006615 -0.007125
v -0.000998 0.004619 -0.005129
v -0.000998 0.002623 -0.005129
v -0.000998 0.004619 -0.007125
v -0.000998 0.002623 -0.007125
v -0.000998 0.002623 -0.009121
v -0.000998 0.000627 -0.001137
v -0.000998 -0.001370 -0.001137
v -0.000998 0.000627 -0.003133
v -0.000998 -0.001370 -0.003133
v -0.000998 -0.003366 -0.001137
v -0.000998 -0.005362 -0.001137
v -0.000998 -0.003366 -0.003133
v -0.000998 -0.005362 -0.003133
v -0.000998 0.000627 -0.005129
v -0.000998 -0.001370 -0.005129
v -0.000998 0.000627 -0.007125
v -0.000998 -0.001370 -0.007125
v -0.000998 -0.003366 -0.005129
v -0.000998 -0.005362 -0.005129
v -0.000998 -0.003366 -0.007125
v -0.000998 -0.005362 -0.007125
v -0.000998 -0.007358 -0.001137
v -0.000998 -0.009354 -0.001137
v -0.000998 -0.007358 -0.003133
v -0.000998 -0.009354 -0.003133
v -0.000998 -0.011351 -0.001137
v -0.000998 -0.013347 -0.001137
v -0.000998 -0.011351 -0.003133
v -0.000998 -0.013347 -0.003133
v -0.000998 -0.007358 -0.005129
v -0.000998 -0.009354 -0.005129
v -0.000998 -0.007358 -0.007125
v -0.000998 -0.009354 -0.007125
v -0.000998 -0.011351 -0.005129
v -0.000998 -0.011351 -0.007125
v -0.000998 0.000627 -0.009121
v -0.000998 -0.001370 -0.009121
v -0.000998 0.000627 -0.011118
v -0.000998 -0.001370 -0.011118
v -0.000998 -0.003366 -0.009121
v -0.000998 -0.005362 -0.009121
v -0.000998 -0.003366 -0.011118
v -0.000998 -0.005362 -0.011118
v -0.000998 0.000627 -0.013114
v -0.000998 -0.001370 -0.013114
v -0.000998 -0.003366 -0.013114
v -0.000998 -0.005362 -0.013114
v -0.000998 -0.007358 -0.009121
v 0.000998 0.014600 -0.001137
v 0.000998 0.014600 -0.003133
v 0.000998 0.012604 -0.001137
v 0.000998 0.010608 -0.001137
v 0.000998 0.012604 -0.003133
v 0.000998 0.010608 -0.003133
v 0.000998 0.014600 -0.005129
v 0.000998 0.012604 -0.005129
v 0.000998 0.010608 -0.005129
v 0.000998 0.008611 -0.001137
v 0.000998 0.006615 -0.001137
v 0.000998 0.008611 -0.003133
v 0.000998 0.006615 -0.003133
v 0.000998 0.004619 -0.001137
v 0.000998 0.002623 -0.001137
v 0.000998 0.004619 -0.003133
v 0.000998 0.002623 -0.003133
v 0.000998 0.006615 -0.005129
v 0.000998 0.006615 -0.007125
v 0.000998 0.004619 -0.005129
v 0.000998 0.002623 -0.005129
v 0.000998 0.004619 -0.007125
v 0.000998 0.002623 -0.007125
v 0.000998 0.002623 -0.009121
v 0.000998 0.000627 -0.001137
v 0.000998 -0.001370 -0.001137
v 0.000998 0.000627 -0.003133
v 0.000998 -0.001370 -0.003133
v 0.000998 -0.003366 -0.001137
v 0.000998 -0.005362 -0.001137
v 0.000998 -0.003366 -0.003133
v 0.000998 -0.005362 -0.003133
v 0.000998 0.000627 -0.005129
v 0.000998 -0.001370 -0.005129
v 0.000998 0.000627 -0.007125
v 0.000998 -0.001370 -0.007125
v 0.000998 -0.003366 -0.005129
v 0.000998 -0.005362 -0.005129
v 0.000998 -0.003366 -0.007125
v 0.000998 -0.005362 -0.007125
v 0.000998 -0.007358 -0.001137
v 0.000998 -0.009354 -0.001137
v 0.000998 -0.007358 -0.003133
v 0.000998 -0.009354 -0.003133
v 0.000998 -0.011351 -0.001137
v 0.000998 -0.013347 -0.001137
v 0.000998 -0.011351 -0.003133
v 0.000998 -0.013347 -0.003133
v 0.000998 -0.007358 -0.005129
v 0.000998 -0.009354 -0.005129
v 0.000998 -0.007358 -0.007125
v 0.000998 -0.009354 -0.007125
v 0.000998 -0.011351 -0.005129
v 0.000998 -0.011351 -0.007125
v 0.000998 0.000627 -0.009121
v 0.000998 -0.001370 -0.009121
v 0.000998 0.000627 -0.011118
v 0.000998 -0.001370 -0.011118
v 0.000998 -0.003366 -0.009121
v 0.000998 -0.005362 -0.009121
v 0.000998 -0.003366 -0.011118
v 0.000998 -0.005362 -0.011118
v 0.000998 0.000627 -0.013114
v 0.000998 -0.001370 -0.013114
v 0.000998 -0.003366 -0.013114
v 0.000998 -0.005362 -0.013114
v 0.000998 -0.007358 -0.009121
vn -1.0000 -0.0000 -0.0000
vn 1.0000 -0.0000 -0.0000
vn -0.0000 -0.0000 1.0000
vn -0.0000 -0.0000 -1.0000
vn -0.0000 1.0000 -0.0000
vn -0.0000 -1.0000 -0.0000
s 0
usemtl palette
f 2//1 4//1 5//1 3//1
f 10//1 12//1 13//1 11//1
f 6//1 10//1 11//1 7//1
f 8//1 9//1 12//1 10//1
f 5//1 8//1 10//1 6//1
f 16//1 18//1 19//1 17//1
f 20//1 22//1 23//1 21//1
f 24//1 26//1 27//1 25//1
f 18//1 24//1 25//1 19//1
f 14//1 15//1 18//1 16//1
f 21//1 23//1 26//1 24//1
f 15//1 21//1 24//1 18//1
f 32//1 34//1 35//1 33//1
f 36//1 38//1 39//1 37//1
f 28//1 32//1 33//1 29//1
f 30//1 36//1 37//1 31//1
f 33//1 35//1 38//1 36//1
f 29//1 33//1 36//1 30//1
f 41//1 43//1 44//1 42//1
f 45//1 47//1 48//1 46//1
f 49//1 51//1 52//1 50//1
f 53//1 55//1 56//1 54//1
f 43//1 49//1 50//1 44//1
f 47//1 53//1 54//1 48//1
f 42//1 44//1 47//1 45//1
f 50//1 52//1 55//1 53//1
f 44//1 50//1 53//1 47//1
f 57//1 59//1 60//1 58//1
f 63//1 65//1 66//1 64//1
f 67//1 69//1 70//1 68//1
f 59//1 63//1 64//1 60//1
f 58//1 60//1 62//1 61//1
f 64//1 66//1 69//1 67//1
f 60//1 64//1 67//1 62//1
f 34//1 41//1 42//1 35//1
f 38//1 45//1 46//1 39//1
f 35//1 42//1 45//1 38//1
f 46//1 48//1 59//1 57//1
f 54//1 56//1 65//1 63//1
f 48//1 54//1 63//1 59//1
f 39//1 46//1 57//1 40//1
f 73//2 75//2 74//2 72//2
f 81//2 83//2 82//2 80//2
f 77//2 81//2 80//2 76//2
f 80//2 82//2 79//2 78//2
f 76//2 80//2 78//2 75//2
f 87//2 89//2 88//2 86//2
f 91//2 93//2 92//2 90//2
f 95//2 97//2 96//2 94//2
f 89//2 95//2 94//2 88//2
f 86//2 88//2 85//2 84//2
f 94//2 96//2 93//2 91//2
f 88//2 94//2 91//2 85//2
f 103//2 105//2 104//2 102//2
f 107//2 109//2 108//2 106//2
f 99//2 103//2 102//2 98//2
f 101//2 107//2 106//2 100//2
f 106//2 108//2 105//2 103//2
f 100//2 106//2 103//2 99//2
f 112//2 114//2 113//2 111//2
f 116//2 118//2 117//2 115//2
f 120//2 122//2 121//2 119//2
f 124//2 126//2 125//2 123//2
f 114//2 120//2 119//2 113//2
f 118//2 124//2 123//2 117//2
f 115//2 117//2 114//2 112//2
f 123//2 125//2 122//2 120//2
f 117//2 123//2 120//2 114//2
f 128//2 130//2 129//2 127//2
f 134//2 136//2 135//2 133//2
f 138//2 140//2 139//2 137//2
f 130//2 134//2 133//2 129//2
f 131//2 132//2 130//2 128//2
f 137//2 139//2 136//2 134//2
f 132//2 137//2 134//2 130//2
f 105//2 112//2 111//2 104//2
f 109//2 116//2 115//2 108//2
f 108//2 115//2 112//2 105//2
f 127//2 129//2 118//2 116//2
f 133//2 135//2 126//2 124//2
f 129//2 133//2 124//2 118//2
f 110//2 127//2 116//2 109//2
f 143//1 145//1 146//1 144//1
f 145//1 148//1 149//1 146//1
f 141//1 142//1 145//1 143//1
f 142//1 147//1 148//1 145//1
f 150//1 152//1 153//1 151//1
f 154//1 156//1 157//1 155//1
f 160//1 162//1 163//1 161//1
f 156//1 160//1 161//1 157//1
f 151//1 153//1 156//1 154//1
f 158//1 159//1 162//1 160//1
f 153//1 158//1 160//1 156//1
f 165//1 167//1 168//1 166//1
f 169//1 171//1 172//1 170//1
f 173//1 175//1 176//1 174//1
f 177//1 179//1 180//1 178//1
f 167//1 173//1 174//1 168//1
f 171//1 177//1 178//1 172//1
f 166//1 168//1 171//1 169//1
f 174//1 176//1 179//1 177//1
f 168//1 174//1 177//1 171//1
f 181//1 183//1 184//1 182//1
f 185//1 187//1 188//1 186//1
f 189//1 191//1 192//1 190//1
f 183//1 189//1 190//1 184//1
f 182//1 184//1 187//1 185//1
f 190//1 192//1 194//1 193//1
f 184//1 190//1 193//1 187//1
f 195//1 197//1 198//1 196//1
f 199//1 201//1 202//1 200//1
f 197//1 203//1 204//1 198//1
f 201//1 205//1 206//1 202//1
f 196//1 198//1 201//1 199//1
f 198//1 204//1 205//1 201//1
f 175//1 195//1 196//1 176//1
f 179//1 199//1 200//1 180//1
f 176//1 196//1 199//1 179//1
f 170//1 172//1 183//1 181//1
f 178//1 180//1 191//1 189//1
f 172//1 178//1 189//1 183//1
f 180//1 200//1 207//1 191//1
f 211//2 213//2 212//2 210//2
f 213//2 216//2 215//2 212//2
f 210//2 212//2 209//2 208//2
f 212//2 215//2 214//2 209//2
f 218//2 220//2 219//2 217//2
f 222//2 224//2 223//2 221//2
f 228//2 230//2 229//2 227//2
f 224//2 228//2 227//2 223//2
f 221//2 223//2 220//2 218//2
f 227//2 229//2 226//2 225//2
f 223//2 227//2 225//2 220//2
f 233//2 235//2 234//2 232//2
f 237//2 239//2 238//2 236//2
f 241//2 243//2 242//2 240//2
f 245//2 247//2 246//2 244//2
f 235//2 241//2 240//2 234//2
f 239//2 245//2 244//2 238//2
f 236//2 238//2 235//2 233//2
f 244//2 246//2 243//2 241//2
f 238//2 244//2 241//2 235//2
f 249//2 251//2 250//2 248//2
f 253//2 255//2 254//2 252//2
f 257//2 259//2 258//2 256//2
f 251//2 257//2 256//2 250//2
f 252//2 254//2 251//2 249//2
f 260//2 261//2 259//2 257//2
f 254//2 260//2 257//2 251//2
f 263//2 265//2 264//2 262//2
f 267//2 269//2 268//2 266//2
f 265//2 271//2 270//2 264//2
f 269//2 273//2 272//2 268//2
f 266//2 268//2 265//2 263//2
f 268//2 272//2 271//2 265//2
f 243//2 263//2 262//2 242//2
f 247//2 267//2 266//2 246//2
f 246//2 266//2 263//2 243//2
f 248//2 250//2 239//2 237//2
f 256//2 258//2 247//2 245//2
f 250//2 256//2 245//2 239//2
f 258//2 274//2 267//2 247//2
f 12//1 143//1 144//1 13//1
f 9//1 141//1 143//1 12//1
f 22//1 150//1 151//1 23//1
f 26//1 154//1 155//1 27//1
f 23//1 151//1 154//1 26//1
f 13//1 144//1 150//1 22//1
f 51//1 165//1 166//1 52//1
f 55//1 169//1 170//1 56//1
f 52//1 166//1 169//1 55//1
f 65//1 181//1 182//1 66//1
f 69//1 185//1 186//1 70//1
f 66//1 182//1 185//1 69//1
f 56//1 170//1 181//1 65//1
f 83//2 211//2 210//2 82//2
f 82//2 210//2 208//2 79//2
f 93//2 218//2 217//2 92//2
f 97//2 222//2 221//2 96//2
f 96//2 221//2 218//2 93//2
f 92//2 217//2 211//2 83//2
f 122//2 233//2 232//2 121//2
f 126//2 237//2 236//2 125//2
f 125//2 236//2 233//2 122//2
f 136//2 249//2 248//2 135//2
f 140//2 253//2 252//2 139//2
f 139//2 252//2 249//2 136//2
f 135//2 248//2 237//2 126//2
f 2//3 3//3 73//3 72//3
f 74//4 75//4 5//4 4//4
f 2//5 72//5 74//5 4//5
f 5//6 75//6 73//6 3//6
f 8//5 78//5 79//5 9//5
f 6//3 7//3 77//3 76//3
f 13//6 83//6 81//6 11//6
f 5//3 6//3 76//3 75//3
f 5//5 75//5 78//5 8//5
f 11//6 81//6 77//6 7//6
f 14//5 84//5 85//5 15//5
f 20//3 21//3 91//3 90//3
f 20//5 90//5 92//5 22//5
f 16//3 17//3 87//3 86//3
f 14//3 16//3 86//3 84//3
f 15//5 85//5 91//5 21//5
f 13//3 22//3 92//3 83//3
f 1//5 71//5 87//5 17//5
f 141//5 208//5 209//5 142//5
f 146//6 213//6 211//6 144//6
f 215//4 216//4 149//4 148//4
f 214//4 215//4 148//4 147//4
f 142//5 209//5 214//5 147//5
f 149//6 216//6 213//6 146//6
f 219//4 220//4 153//4 152//4
f 150//5 217//5 219//5 152//5
f 158//5 225//5 226//5 159//5
f 229//4 230//4 163//4 162//4
f 226//4 229//4 162//4 159//4
f 153//5 220//5 225//5 158//5
f 211//4 217//4 150//4 144//4
f 163//5 230//5 231//5 164//5
f 28//3 29//3 99//3 98//3
f 32//5 102//5 104//5 34//5
f 30//3 31//3 101//3 100//3
f 39//6 109//6 107//6 37//6
f 29//3 30//3 100//3 99//3
f 28//5 98//5 102//5 32//5
f 37//6 107//6 101//6 31//6
f 57//3 58//3 128//3 127//3
f 62//6 132//6 131//6 61//6
f 67//3 68//3 138//3 137//3
f 70//6 140//6 138//6 68//6
f 58//3 61//3 131//3 128//3
f 67//6 137//6 132//6 62//6
f 39//3 40//3 110//3 109//3
f 57//6 127//6 110//6 40//6
f 195//5 262//5 264//5 197//5
f 270//4 271//4 204//4 203//4
f 202//6 269//6 267//6 200//6
f 272//4 273//4 206//4 205//4
f 271//4 272//4 205//4 204//4
f 197//5 264//5 270//5 203//5
f 206//6 273//6 269//6 202//6
f 258//4 259//4 192//4 191//4
f 254//4 255//4 188//4 187//4
f 188//6 255//6 253//6 186//6
f 194//6 261//6 260//6 193//6
f 259//4 261//4 194//4 192//4
f 193//6 260//6 254//6 187//6
f 267//4 274//4 207//4 200//4
f 207//6 274//6 258//6 191//6
f 17//1 19//1 43//1 41//1
f 25//1 27//1 51//1 49//1
f 19//1 25//1 49//1 43//1
f 1//1 17//1 41//1 34//1
f 111//2 113//2 89//2 87//2
f 119//2 121//2 97//2 95//2
f 113//2 119//2 95//2 89//2
f 104//2 111//2 87//2 71//2
f 155//1 157//1 167//1 165//1
f 161//1 163//1 175//1 173//1
f 157//1 161//1 173//1 167//1
f 163//1 164//1 195//1 175//1
f 232//2 234//2 224//2 222//2
f 240//2 242//2 230//2 228//2
f 234//2 240//2 228//2 224//2
f 242//2 262//2 231//2 230//2
f 1//3 34//3 104//3 71//3
f 231//4 262//4 195//4 164//4
f 27//1 155//1 165//1 51//1
f 121//2 232//2 222//2 97//2
f 9//5 79//5 208//5 141//5
f 186//6 253//6 140//6 70//6
